<svg width="753" height="431" viewBox="0 0 753 431" fill="none" xmlns="http://www.w3.org/2000/svg">
<path d="M249.705 174.465C248.319 176.573 247.386 178.893 246.884 181.292L243.068 181.654V189.033L246.884 189.394C247.376 191.784 248.309 194.103 249.705 196.222L247.275 199.163L252.496 204.384L255.438 201.955C257.546 203.34 259.865 204.274 262.265 204.776L262.626 208.591H270.006L270.367 204.776C272.757 204.274 275.076 203.35 277.194 201.955L280.136 204.384L285.357 199.163L282.927 196.222C284.313 194.113 285.246 191.794 285.748 189.394L289.564 189.033V181.654L285.748 181.292C285.256 178.903 284.323 176.583 282.927 174.465L285.357 171.523L280.136 166.302L277.194 168.732C275.086 167.347 272.757 166.413 270.367 165.911L270.006 162.096H262.626L262.265 165.911C259.875 166.403 257.556 167.337 255.438 168.732L252.496 166.302L247.275 171.523L249.705 174.465ZM273.369 178.27C277.275 182.176 277.275 188.501 273.369 192.396C269.464 196.302 263.138 196.302 259.233 192.396C255.327 188.491 255.327 182.166 259.233 178.26C263.138 174.355 269.464 174.355 273.359 178.26L273.369 178.27Z" fill="black" fill-opacity="0.45"/>
<path d="M434.772 189.796C433.869 191.172 433.256 192.688 432.935 194.244L430.455 194.475V199.284L432.935 199.515C433.256 201.071 433.869 202.587 434.772 203.963L433.186 205.88L436.589 209.284L438.507 207.697C439.883 208.601 441.399 209.213 442.955 209.535L443.186 212.015H447.995L448.226 209.535C449.782 209.213 451.298 208.601 452.673 207.697L454.591 209.284L457.995 205.88L456.408 203.963C457.312 202.587 457.924 201.071 458.246 199.515L460.726 199.284V194.475L458.246 194.244C457.924 192.688 457.312 191.172 456.408 189.796L457.995 187.878L454.591 184.475L452.673 186.061C451.298 185.158 449.782 184.545 448.226 184.224L447.995 181.744H443.186L442.955 184.224C441.399 184.545 439.883 185.158 438.507 186.061L436.589 184.475L433.186 187.878L434.772 189.796ZM450.194 192.276C452.734 194.816 452.734 198.943 450.194 201.483C447.653 204.023 443.527 204.023 440.987 201.483C438.447 198.943 438.447 194.816 440.987 192.276C443.527 189.736 447.653 189.736 450.194 192.276Z" fill="black" fill-opacity="0.45"/>
<path d="M464.631 225.87C463.697 227.285 463.075 228.842 462.744 230.448L460.183 230.689V235.639L462.744 235.88C463.075 237.486 463.707 239.042 464.631 240.458L462.995 242.436L466.499 245.94L468.476 244.303C469.892 245.237 471.448 245.859 473.055 246.191L473.296 248.751H478.245L478.486 246.191C480.093 245.859 481.649 245.227 483.065 244.303L485.042 245.94L488.546 242.436L486.91 240.458C487.844 239.042 488.466 237.486 488.797 235.88L491.358 235.639V230.689L488.797 230.448C488.466 228.842 487.834 227.285 486.91 225.87L488.546 223.892L485.042 220.388L483.065 222.025C481.649 221.091 480.093 220.468 478.486 220.137L478.245 217.577H473.296L473.055 220.137C471.448 220.468 469.892 221.101 468.476 222.025L466.499 220.388L462.995 223.892L464.631 225.87ZM480.514 228.43C483.135 231.05 483.135 235.297 480.514 237.918C477.894 240.538 473.647 240.538 471.027 237.918C468.406 235.297 468.406 231.05 471.027 228.43C473.647 225.81 477.894 225.81 480.514 228.43Z" fill="#FFAF00"/>
<path d="M100.782 246.964C98.5928 250.297 97.1169 253.972 96.3338 257.747L90.3098 258.309V269.976L96.3338 270.548C97.1169 274.333 98.5928 277.998 100.782 281.331L96.9362 285.979L105.179 294.222L109.828 290.377C113.161 292.566 116.835 294.041 120.611 294.825L121.173 300.849H132.839L133.412 294.825C137.197 294.041 140.861 292.566 144.195 290.377L148.843 294.222L157.086 285.979L153.241 281.331C155.429 277.998 156.905 274.323 157.688 270.548L163.712 269.976V258.309L157.688 257.737C156.905 253.952 155.429 250.287 153.241 246.954L157.086 242.305L148.843 234.062L144.195 237.908C140.851 235.719 137.187 234.243 133.412 233.46L132.839 227.436H121.173L120.611 233.46C116.825 234.243 113.161 235.719 109.828 237.908L105.179 234.062L96.9362 242.305L100.782 246.954V246.964ZM138.181 252.988C144.345 259.152 144.345 269.152 138.181 275.317C132.016 281.481 122.016 281.481 115.852 275.317C109.687 269.152 109.687 259.152 115.852 252.988C122.016 246.823 132.016 246.823 138.181 252.988Z" fill="black" fill-opacity="0.45"/>
<path d="M587.22 253.219C585.814 255.367 584.86 257.727 584.358 260.156L580.483 260.518V268.018L584.358 268.379C584.86 270.809 585.814 273.168 587.22 275.317L584.75 278.309L590.051 283.61L593.043 281.14C595.191 282.546 597.551 283.499 599.98 284.001L600.342 287.877H607.842L608.203 284.001C610.633 283.499 612.992 282.546 615.141 281.14L618.133 283.61L623.434 278.309L620.964 275.317C622.37 273.168 623.323 270.809 623.825 268.379L627.701 268.018V260.518L623.825 260.156C623.323 257.727 622.37 255.367 620.964 253.219L623.434 250.227L618.133 244.926L615.141 247.396C612.992 245.99 610.633 245.036 608.203 244.534L607.842 240.659H600.342L599.98 244.534C597.551 245.036 595.191 245.99 593.043 247.396L590.051 244.926L584.75 250.227L587.22 253.219ZM611.275 257.094C615.241 261.06 615.241 267.496 611.275 271.462C607.31 275.427 600.874 275.427 596.908 271.462C592.942 267.496 592.942 261.06 596.908 257.094C600.874 253.128 607.3 253.128 611.275 257.094Z" fill="black" fill-opacity="0.45"/>
<path d="M90.4303 313.71C89.3158 315.407 88.5729 317.264 88.1713 319.182L85.1091 319.473V325.396L88.1713 325.688C88.5729 327.605 89.3158 329.473 90.4303 331.159L88.4725 333.519L92.6592 337.705L95.0186 335.748C96.7153 336.862 98.5727 337.605 100.49 338.007L100.782 341.069H106.705L106.996 338.007C108.914 337.605 110.781 336.862 112.468 335.748L114.827 337.705L119.014 333.519L117.056 331.159C118.171 329.463 118.914 327.605 119.315 325.688L122.378 325.396V319.473L119.315 319.182C118.914 317.264 118.171 315.397 117.056 313.71L119.014 311.35L114.827 307.164L112.468 309.122C110.771 308.007 108.914 307.264 106.996 306.863L106.705 303.8H100.782L100.49 306.863C98.5727 307.264 96.7053 308.007 95.0186 309.122L92.6592 307.164L88.4725 311.35L90.4303 313.71ZM109.416 316.762C112.548 319.894 112.548 324.965 109.416 328.097C106.283 331.23 101.203 331.23 98.0808 328.097C94.9583 324.965 94.9483 319.894 98.0808 316.762C101.213 313.629 106.283 313.629 109.416 316.762Z" fill="#FFAF00"/>
<path d="M472.502 179.093C471.157 181.152 470.243 183.411 469.762 185.74L466.047 186.091V193.28L469.762 193.631C470.243 195.961 471.157 198.22 472.502 200.278L470.133 203.139L475.213 208.22L478.075 205.85C480.133 207.195 482.392 208.109 484.721 208.591L485.073 212.306H492.261L492.613 208.591C494.942 208.109 497.201 207.195 499.259 205.85L502.12 208.22L507.201 203.139L504.831 200.278C506.177 198.22 507.09 195.961 507.572 193.631L511.287 193.28V186.091L507.582 185.74C507.1 183.411 506.187 181.152 504.841 179.093L507.211 176.232L502.131 171.152L499.269 173.521C497.211 172.176 494.952 171.262 492.623 170.78L492.271 167.066H485.083L484.731 170.78C482.402 171.262 480.143 172.176 478.085 173.521L475.223 171.152L470.143 176.232L472.513 179.093H472.502ZM495.544 182.798C499.339 186.593 499.339 192.758 495.544 196.553C491.749 200.348 485.585 200.348 481.789 196.553C477.994 192.758 477.994 186.593 481.789 182.798C485.585 179.003 491.749 179.003 495.544 182.798Z" fill="#FFAF00"/>
<path d="M166.268 98.1854L71.6664 120.67L87.7623 188.391L182.364 165.906L166.268 98.1854Z" fill="#FFAF00"/>
<path d="M163.196 101.712L75.9879 122.44L90.8277 184.876L178.035 164.149L163.196 101.712Z" fill="#FAFAFA"/>
<path d="M90.8319 184.866L88.593 175.449C91.7657 164.837 102.127 148.753 106.605 147.477C114.034 145.359 128.964 156.122 128.964 156.122C128.964 156.122 143.713 130.379 148.462 128.12C156.042 124.526 172.778 142.006 172.778 142.006L178.039 164.134L90.8319 184.866Z" fill="#D4D4D4"/>
<path d="M130.149 130.66C130.801 134.968 127.839 138.994 123.532 139.646C119.225 140.299 115.199 137.337 114.546 133.03C113.894 128.723 116.856 124.697 121.163 124.044C125.47 123.391 129.496 126.353 130.149 130.66Z" fill="#D4D4D4"/>
<path d="M619.065 55.371L499.86 50.479L496.358 135.817L615.563 140.709L619.065 55.371Z" fill="#FFAF00"/>
<path d="M614.274 58.5104L504.378 54.0005L501.149 132.678L611.045 137.188L614.274 58.5104Z" fill="#FAFAFA"/>
<path d="M501.147 132.699L501.639 120.831C508.918 109.356 526.498 93.8035 532.211 93.7835C541.699 93.7533 555.745 111.424 555.745 111.424C555.745 111.424 581.718 85.9221 588.083 84.8378C598.234 83.1109 612.179 109.325 612.179 109.325L611.035 137.206L501.137 132.688L501.147 132.699Z" fill="#D4D4D4"/>
<path d="M565.604 81.7456C564.941 87.0467 560.112 90.8217 554.801 90.1591C549.5 89.4965 545.725 84.6672 546.387 79.3561C547.05 74.0549 551.879 70.2799 557.19 70.9425C562.491 71.6052 566.266 76.4344 565.604 81.7456Z" fill="#D4D4D4"/>
<path d="M684.235 196.846L619.279 184.748L610.618 231.247L675.575 243.345L684.235 196.846Z" fill="#FFAF00"/>
<path d="M681.36 198.189L621.477 187.037L613.493 229.903L673.376 241.056L681.36 198.189Z" fill="#FAFAFA"/>
<path d="M613.475 229.946L614.679 223.48C619.569 217.758 630.442 210.629 633.575 211.071C638.775 211.804 645.08 222.597 645.08 222.597C645.08 222.597 661.335 210.669 664.909 210.579C670.612 210.428 676.184 225.91 676.184 225.91L673.353 241.101L613.475 229.946Z" fill="#D4D4D4"/>
<path d="M652.831 207.105C652.048 209.967 649.106 211.643 646.245 210.86C643.394 210.077 641.707 207.135 642.49 204.274C643.273 201.413 646.215 199.736 649.076 200.519C651.938 201.302 653.614 204.244 652.831 207.105Z" fill="#D4D4D4"/>
<path d="M352.525 37.4089C352.675 37.4089 352.796 37.5294 352.786 37.68C352.786 37.7704 352.736 37.8607 352.655 37.9109L329.423 50.1497L328.318 50.7421L316.421 56.997L275.488 58.3725C275.337 58.3725 275.217 58.252 275.227 58.1014C275.227 58.011 275.277 57.9207 275.357 57.8705L311.09 39.0555C311.421 38.8748 311.782 38.7844 312.164 38.7744L325.015 38.3326L326.27 38.2925L352.525 37.419V37.4089Z" fill="#E6E6E6"/>
<path d="M335.607 42.1679C334.794 40.8426 324.995 42.2181 313.319 45.3104C301.642 48.4027 292.455 52.0673 292.395 53.6235L297.194 71.7257C297.285 72.067 297.626 72.2578 297.967 72.1775L339.975 61.0431C340.316 60.9628 340.517 60.6214 340.437 60.2801L335.637 42.1679H335.597H335.607Z" fill="#D4D4D4"/>
<path d="M332.073 56.4447L333.087 60.27L332.786 60.3503L331.943 58.0511L332.334 60.4607L331.832 60.5913L330.979 58.3021L331.37 60.7117L330.868 60.8423L330.015 58.5531L330.417 60.9627L330.115 61.0431L329.101 57.2178C328.951 56.6154 329.172 55.9929 329.664 55.6215L325.075 38.3125L326.33 38.2723L330.848 55.3102C331.441 55.4106 331.923 55.8524 332.073 56.4347V56.4447Z" fill="#FFAF00"/>
<path d="M753 352.755H0V352.876H753V352.755Z" fill="#FFAF00"/>
<path d="M712.197 382.243H656.245V382.664H712.197V382.243Z" fill="#D4D4D4"/>
<path d="M511.709 386.831H497.02V387.253H511.709V386.831Z" fill="#D4D4D4"/>
<path d="M113.763 369.392H40.8024V369.813H113.763V369.392Z" fill="#D4D4D4"/>
<path d="M139.516 369.392H128.813V369.813H139.516V369.392Z" fill="#D4D4D4"/>
<path d="M332.525 376.53H174.284V376.952H332.525V376.53Z" fill="#D4D4D4"/>
<path d="M722.85 415.515C722.85 419.22 565.985 422.222 372.484 422.222C178.983 422.222 22.1181 419.22 22.1181 415.515C22.1181 411.811 178.983 408.809 372.484 408.809C565.985 408.809 722.85 411.811 722.85 415.515Z" fill="black" fill-opacity="0.45"/>
<path d="M105.721 366.791L101.293 366.169C102.077 360.647 106.695 350.195 118.512 350.195C132.498 350.195 139.466 358.267 140.158 366.289L135.731 366.671C135.219 360.677 129.677 354.623 118.502 354.623C107.327 354.623 105.832 366.299 105.731 366.791H105.721Z" fill="#263238"/>
<path d="M157.538 362.896H85.5909C81.654 362.896 78.4625 366.087 78.4625 370.024V407.232C78.4625 411.169 81.654 414.361 85.5909 414.361H157.538C161.474 414.361 164.666 411.169 164.666 407.232V370.024C164.666 366.087 161.474 362.896 157.538 362.896Z" fill="#263238"/>
<path opacity="0.2" d="M157.538 362.896H85.5909C81.654 362.896 78.4625 366.087 78.4625 370.024V407.232C78.4625 411.169 81.654 414.361 85.5909 414.361H157.538C161.474 414.361 164.666 411.169 164.666 407.232V370.024C164.666 366.087 161.474 362.896 157.538 362.896Z" fill="white"/>
<path d="M140.188 415.154C79.2457 415.154 76.2939 373.357 76.2939 372.916L78.7738 368.076C78.8742 369.622 83.6733 410.696 140.239 410.696C163.521 410.696 183.611 410.696 185.65 406.268C187.437 402.353 178.712 392.303 164.716 376.199V369.964C182.547 390.496 192.647 401.54 189.686 408.056C186.553 414.893 173.09 415.154 140.198 415.154H140.188Z" fill="#263238"/>
<path d="M657.198 381.891H651.576V400.375H657.198V381.891Z" fill="#263238"/>
<path d="M654.317 384.863C645.572 384.863 636.968 382.705 629.257 378.568L631.918 373.618C655.13 386.018 683.995 377.263 696.394 354.05C702.429 342.755 703.663 329.503 699.818 317.284C698.312 312.445 696.023 307.877 693.061 303.77C688.814 297.867 683.272 293.017 676.857 289.574L679.507 284.624C682.459 286.21 685.27 288.068 687.881 290.176C691.575 293.158 694.848 296.622 697.619 300.477C700.943 305.075 703.493 310.176 705.179 315.587C714.025 343.649 698.453 373.568 670.391 382.414C665.19 384.05 659.769 384.883 654.317 384.883V384.863Z" fill="#263238"/>
<g opacity="0.3">
<path d="M654.317 384.863C645.572 384.863 636.968 382.705 629.257 378.568L631.918 373.618C655.13 386.018 683.995 377.263 696.394 354.05C702.429 342.755 703.663 329.503 699.818 317.284C698.312 312.445 696.023 307.877 693.061 303.77C688.814 297.867 683.272 293.017 676.857 289.574L679.507 284.624C682.459 286.21 685.27 288.068 687.881 290.176C691.575 293.158 694.848 296.622 697.619 300.477C700.943 305.075 703.493 310.176 705.179 315.587C714.025 343.649 698.453 373.568 670.391 382.414C665.19 384.05 659.769 384.883 654.317 384.883V384.863Z" fill="white"/>
</g>
<path d="M627.45 383.257C627.219 383.257 626.988 383.207 626.787 383.086C626.124 382.715 625.863 381.891 626.215 381.209L680.1 280.688C680.461 280.006 681.314 279.744 681.997 280.106C682.68 280.467 682.941 281.321 682.579 282.003L628.685 382.484C628.444 382.946 627.972 383.237 627.45 383.247V383.257Z" fill="#263238"/>
<g opacity="0.4">
<path d="M627.45 383.257C627.219 383.257 626.988 383.207 626.787 383.086C626.124 382.715 625.863 381.891 626.215 381.209L680.1 280.688C680.461 280.006 681.314 279.744 681.997 280.106C682.68 280.467 682.941 281.321 682.579 282.003L628.685 382.484C628.444 382.946 627.972 383.237 627.45 383.247V383.257Z" fill="white"/>
</g>
<path d="M644.116 399.01H664.658C666.033 399.01 667.148 400.124 667.148 401.5V406.088H641.626V401.5C641.626 400.124 642.741 399.01 644.106 399.01H644.116Z" fill="#263238"/>
<path d="M656.495 290.558C679.156 291.722 696.585 311.039 695.431 333.699C694.266 356.36 674.949 373.789 652.289 372.635C629.628 371.47 612.199 352.153 613.354 329.493C614.518 306.822 633.835 289.403 656.495 290.558Z" fill="#1A5D94"/>
<path opacity="0.2" d="M667.228 292.596C667.821 304.955 663.855 318.298 655.17 329.764C645.552 342.454 632.149 350.185 618.785 352.133C607.48 332.444 614.277 307.314 633.956 296.009C644.066 290.206 656.154 288.961 667.228 292.596Z" fill="white"/>
<g opacity="0.3">
<path d="M644.116 399.01H664.658C666.033 399.01 667.148 400.124 667.148 401.5V406.088H641.626V401.5C641.626 400.124 642.741 399.01 644.106 399.01H644.116Z" fill="white"/>
</g>
<path d="M633.032 404.742H675.752C677.359 404.742 678.654 406.038 678.654 407.644V412.413H630.13V407.644C630.13 406.038 631.426 404.742 633.032 404.742Z" fill="#263238"/>
<g opacity="0.4">
<path d="M633.032 404.742H675.752C677.359 404.742 678.654 406.038 678.654 407.644V412.413H630.13V407.644C630.13 406.038 631.426 404.742 633.032 404.742Z" fill="white"/>
</g>
<path d="M633.574 136.413C641.757 147.528 639.387 163.17 628.283 171.353C619.709 177.678 608.444 177.678 599.98 172.246L592.751 174.264L593.615 166.383C593.534 166.272 593.434 166.172 593.354 166.062C585.171 154.947 587.541 139.305 598.645 131.122C609.759 122.94 625.401 125.309 633.584 136.413H633.574Z" fill="#1A5D94"/>
<path opacity="0.7" d="M633.574 136.413C641.757 147.528 639.387 163.17 628.283 171.353C619.709 177.678 608.444 177.678 599.98 172.246L592.751 174.264L593.615 166.383C593.534 166.272 593.434 166.172 593.354 166.062C585.171 154.947 587.541 139.305 598.645 131.122C609.759 122.94 625.401 125.309 633.584 136.413H633.574Z" fill="white"/>
<path d="M635.19 133.984C635.11 133.984 635.03 133.944 634.98 133.873C630.592 127.428 622.821 123.341 615.03 123.341C614.819 123.341 614.609 123.341 614.388 123.341C614.267 123.351 614.137 123.231 614.127 123.1C614.127 122.96 614.227 122.849 614.368 122.839C622.53 122.598 630.793 126.815 635.391 133.582C635.472 133.693 635.442 133.853 635.321 133.934C635.281 133.964 635.231 133.974 635.181 133.974L635.19 133.984ZM607.109 124.165C608.233 123.733 609.458 123.542 610.653 123.592C610.793 123.602 610.914 123.492 610.914 123.351C610.914 123.211 610.813 123.1 610.673 123.09C609.398 123.03 608.113 123.241 606.928 123.703C606.797 123.753 606.737 123.894 606.787 124.024C606.828 124.125 606.918 124.185 607.018 124.185C607.048 124.185 607.079 124.185 607.109 124.165Z" fill="#1A5D94"/>
<path opacity="0.7" d="M635.19 133.984C635.11 133.984 635.03 133.944 634.98 133.873C630.592 127.428 622.821 123.341 615.03 123.341C614.819 123.341 614.609 123.341 614.388 123.341C614.267 123.351 614.137 123.231 614.127 123.1C614.127 122.96 614.227 122.849 614.368 122.839C622.53 122.598 630.793 126.815 635.391 133.582C635.472 133.693 635.442 133.853 635.321 133.934C635.281 133.964 635.231 133.974 635.181 133.974L635.19 133.984ZM607.109 124.165C608.233 123.733 609.458 123.542 610.653 123.592C610.793 123.602 610.914 123.492 610.914 123.351C610.914 123.211 610.813 123.1 610.673 123.09C609.398 123.03 608.113 123.241 606.928 123.703C606.797 123.753 606.737 123.894 606.787 124.024C606.828 124.125 606.918 124.185 607.018 124.185C607.048 124.185 607.079 124.185 607.109 124.165Z" fill="white"/>
<path d="M607.812 150.459C607.812 152.317 606.306 153.813 604.458 153.813C602.611 153.813 601.105 152.307 601.105 150.459C601.105 148.612 602.611 147.106 604.458 147.106C606.306 147.106 607.812 148.612 607.812 150.459Z" fill="#1A5D94"/>
<path d="M614.729 153.813C616.581 153.813 618.082 152.311 618.082 150.459C618.082 148.607 616.581 147.106 614.729 147.106C612.877 147.106 611.376 148.607 611.376 150.459C611.376 152.311 612.877 153.813 614.729 153.813Z" fill="#1A5D94"/>
<path d="M625 153.813C626.852 153.813 628.353 152.311 628.353 150.459C628.353 148.607 626.852 147.106 625 147.106C623.148 147.106 621.647 148.607 621.647 150.459C621.647 152.311 623.148 153.813 625 153.813Z" fill="#1A5D94"/>
<path d="M255.487 115.43C247.756 105.611 233.249 103.723 223.098 111.203C215.257 116.976 212.335 126.645 214.956 135.269L211.291 140.972L218.51 142.217C218.59 142.317 218.65 142.427 218.731 142.518C226.462 152.337 240.959 154.224 251.12 146.745C261.27 139.265 263.228 125.249 255.497 115.43H255.487Z" fill="#1A5D94"/>
<path opacity="0.7" d="M255.487 115.43C247.756 105.611 233.249 103.723 223.098 111.203C215.257 116.976 212.335 126.645 214.956 135.269L211.291 140.972L218.51 142.217C218.59 142.317 218.65 142.427 218.731 142.518C226.462 152.337 240.959 154.224 251.12 146.745C261.27 139.265 263.228 125.249 255.497 115.43H255.487Z" fill="white"/>
<path d="M262.324 135.49C262.324 135.49 262.274 135.49 262.244 135.48C262.113 135.44 262.043 135.289 262.083 135.158C264.362 128.361 262.796 120.4 258.097 114.878C258.007 114.777 258.017 114.617 258.127 114.526C258.228 114.436 258.388 114.446 258.479 114.556C263.288 120.209 264.894 128.361 262.555 135.319C262.525 135.419 262.425 135.49 262.314 135.49H262.324ZM259.874 141.504C260.587 140.6 261.109 139.536 261.39 138.431C261.421 138.301 261.34 138.16 261.21 138.13C261.069 138.09 260.939 138.18 260.908 138.311C260.647 139.345 260.156 140.349 259.483 141.192C259.392 141.303 259.413 141.464 259.523 141.544C259.573 141.584 259.623 141.594 259.674 141.594C259.744 141.594 259.824 141.564 259.874 141.494V141.504Z" fill="#1A5D94"/>
<path opacity="0.7" d="M262.324 135.49C262.324 135.49 262.274 135.49 262.244 135.48C262.113 135.44 262.043 135.289 262.083 135.158C264.362 128.361 262.796 120.4 258.097 114.878C258.007 114.777 258.017 114.617 258.127 114.526C258.228 114.436 258.388 114.446 258.479 114.556C263.288 120.209 264.894 128.361 262.555 135.319C262.525 135.419 262.425 135.49 262.314 135.49H262.324ZM259.874 141.504C260.587 140.6 261.109 139.536 261.39 138.431C261.421 138.301 261.34 138.16 261.21 138.13C261.069 138.09 260.939 138.18 260.908 138.311C260.647 139.345 260.156 140.349 259.483 141.192C259.392 141.303 259.413 141.464 259.523 141.544C259.573 141.584 259.623 141.594 259.674 141.594C259.744 141.594 259.824 141.564 259.874 141.494V141.504Z" fill="white"/>
<path d="M242.616 128.472C242.616 130.128 244.001 131.474 245.718 131.474C247.435 131.474 248.82 130.128 248.82 128.472C248.82 126.815 247.435 125.47 245.718 125.47C244.001 125.47 242.616 126.815 242.616 128.472Z" fill="#1A5D94"/>
<path d="M233.118 128.472C233.118 130.128 234.503 131.474 236.22 131.474C237.937 131.474 239.323 130.128 239.323 128.472C239.323 126.815 237.937 125.47 236.22 125.47C234.503 125.47 233.118 126.815 233.118 128.472Z" fill="#1A5D94"/>
<path d="M223.62 128.472C223.62 130.128 225.005 131.474 226.722 131.474C228.439 131.474 229.825 130.128 229.825 128.472C229.825 126.815 228.439 125.47 226.722 125.47C225.005 125.47 223.62 126.815 223.62 128.472Z" fill="#1A5D94"/>
<path d="M427.633 20.9936C410.254 20.7928 395.997 34.7183 395.797 52.0975C395.686 61.5251 399.813 70.5109 407.041 76.575C408.367 77.6694 410.405 78.9947 410.355 81.7456C410.355 81.826 410.495 88.623 410.495 88.623H443.597C443.597 88.623 443.738 81.5649 443.738 81.4846C443.738 79.065 445.615 78.0208 446.991 76.9264C454.31 71.053 458.627 62.2178 458.737 52.8304C458.938 35.4512 445.013 21.1944 427.633 20.9936Z" fill="#1A5D94"/>
<path opacity="0.4" d="M427.633 20.9936C410.254 20.7928 395.997 34.7183 395.797 52.0975C395.686 61.5251 399.813 70.5109 407.041 76.575C408.367 77.6694 410.405 78.9947 410.355 81.7456C410.355 81.826 410.495 88.623 410.495 88.623H443.597C443.597 88.623 443.738 81.5649 443.738 81.4846C443.738 79.065 445.615 78.0208 446.991 76.9264C454.31 71.053 458.627 62.2178 458.737 52.8304C458.938 35.4512 445.013 21.1944 427.633 20.9936Z" fill="white"/>
<path opacity="0.2" d="M443.276 34.5476C443.276 40.672 436.107 45.6519 427.212 45.6519C418.316 45.6519 411.148 40.672 411.148 34.5476C411.148 28.4232 418.316 23.4333 427.212 23.4333C436.107 23.4333 443.276 28.4132 443.276 34.5476Z" fill="white"/>
<path d="M403.065 64.5471C400.284 59.7781 399.19 54.1356 400.003 48.6739C400.806 43.2121 403.477 38.1218 407.523 34.3568L407.864 34.7283C403.909 38.413 401.288 43.3928 400.495 48.7441C399.702 54.0955 400.766 59.6175 403.497 64.2961L403.065 64.5471Z" fill="white"/>
<path d="M436.408 81.8962C434.802 77.6593 433.466 73.312 432.402 68.8643C430.776 70.29 428.999 71.0229 427.282 70.9325C425.896 70.8623 424.501 70.2799 423.075 69.1655C422.864 73.4727 422.141 77.7497 420.937 81.8862L419.973 81.6051C421.238 77.2979 421.951 72.8301 422.111 68.3422C421.88 68.1213 421.649 67.9005 421.418 67.6495C417.894 63.9849 416.248 59.4367 417.011 55.501C417.302 54.0051 418.206 52.5493 419.571 52.5493C420.816 52.5794 421.74 53.8043 422.161 56.003C422.914 59.9287 423.236 63.9246 423.125 67.9105C424.591 69.2057 425.977 69.8683 427.332 69.9386C429.37 70.039 431.097 68.7639 432.141 67.7499C431.368 64.3664 430.766 60.9327 430.324 57.4589C430.163 56.2039 430.043 54.979 430.324 53.7842C430.655 52.3284 431.599 51.224 432.724 50.983C434.661 50.5614 436.238 52.6396 436.78 54.8986C437.854 59.3966 436.499 64.527 433.346 67.9607C433.316 67.9908 433.296 68.0209 433.266 68.051C434.34 72.6494 435.705 77.1674 437.372 81.5448L436.428 81.8962H436.408ZM419.521 53.5433C418.788 53.5433 418.196 54.6175 417.985 55.6818C417.282 59.3062 418.828 63.513 422.121 66.9467C422.161 63.3523 421.84 59.7379 421.157 56.1838C421.037 55.5713 420.575 53.5734 419.531 53.5433H419.511H419.521ZM433.185 51.9268C433.095 51.9268 433.005 51.9268 432.914 51.9569C432.071 52.1376 431.489 53.1115 431.288 53.995C431.047 55.0292 431.167 56.1537 431.308 57.3083C431.72 60.511 432.272 63.6937 432.964 66.8262C435.585 63.6736 436.719 59.0452 435.786 55.1095C435.394 53.473 434.34 51.9168 433.185 51.9168V51.9268Z" fill="#263238"/>
<path d="M445.776 86.625H408.477C407.59 86.625 406.871 87.3442 406.871 88.2314V89.0145C406.871 89.9017 407.59 90.6209 408.477 90.6209H445.776C446.663 90.6209 447.382 89.9017 447.382 89.0145V88.2314C447.382 87.3442 446.663 86.625 445.776 86.625Z" fill="#263238"/>
<path opacity="0.3" d="M445.776 86.625H408.477C407.59 86.625 406.871 87.3442 406.871 88.2314V89.0145C406.871 89.9017 407.59 90.6209 408.477 90.6209H445.776C446.663 90.6209 447.382 89.9017 447.382 89.0145V88.2314C447.382 87.3442 446.663 86.625 445.776 86.625Z" fill="white"/>
<path d="M445.113 90.2595H409.13C408.242 90.2595 407.523 90.9787 407.523 91.8659V92.5185C407.523 93.4057 408.242 94.1249 409.13 94.1249H445.113C446 94.1249 446.719 93.4057 446.719 92.5185V91.8659C446.719 90.9787 446 90.2595 445.113 90.2595Z" fill="#263238"/>
<path opacity="0.3" d="M445.113 90.2595H409.13C408.242 90.2595 407.523 90.9787 407.523 91.8659V92.5185C407.523 93.4057 408.242 94.1249 409.13 94.1249H445.113C446 94.1249 446.719 93.4057 446.719 92.5185V91.8659C446.719 90.9787 446 90.2595 445.113 90.2595Z" fill="white"/>
<path d="M414.692 99.6369C417.172 104.175 422.402 108.964 427.563 108.663C432.734 108.362 437.583 103.964 439.511 99.165L414.692 99.6369Z" fill="#263238"/>
<path d="M442.713 97.2273H411.519C410.632 97.2273 409.913 97.9465 409.913 98.8337V99.4863C409.913 100.373 410.632 101.093 411.519 101.093H442.713C443.601 101.093 444.32 100.373 444.32 99.4863V98.8337C444.32 97.9465 443.601 97.2273 442.713 97.2273Z" fill="#263238"/>
<path opacity="0.3" d="M442.713 97.2273H411.519C410.632 97.2273 409.913 97.9465 409.913 98.8337V99.4863C409.913 100.373 410.632 101.093 411.519 101.093H442.713C443.601 101.093 444.32 100.373 444.32 99.4863V98.8337C444.32 97.9465 443.601 97.2273 442.713 97.2273Z" fill="white"/>
<path d="M444.591 93.6832H409.662C408.774 93.6832 408.055 94.4024 408.055 95.2896V95.9422C408.055 96.8294 408.774 97.5486 409.662 97.5486H444.591C445.478 97.5486 446.197 96.8294 446.197 95.9422V95.2896C446.197 94.4024 445.478 93.6832 444.591 93.6832Z" fill="#263238"/>
<path opacity="0.3" d="M444.591 93.6832H409.662C408.774 93.6832 408.055 94.4024 408.055 95.2896V95.9422C408.055 96.8294 408.774 97.5486 409.662 97.5486H444.591C445.478 97.5486 446.197 96.8294 446.197 95.9422V95.2896C446.197 94.4024 445.478 93.6832 444.591 93.6832Z" fill="white"/>
<path d="M409.792 9.57804C412.182 11.9676 414.581 14.3671 416.971 16.7566C417.312 17.098 417.844 16.5659 417.503 16.2245C415.114 13.835 412.714 11.4354 410.324 9.04592C409.983 8.70456 409.451 9.23668 409.792 9.57804Z" fill="#263238"/>
<path d="M428.507 13.9355V0.36144C428.507 -0.12048 427.754 -0.12048 427.754 0.36144V13.9355C427.754 14.4174 428.507 14.4174 428.507 13.9355Z" fill="#263238"/>
<path d="M438.457 17.339C441.047 14.7486 443.627 12.1684 446.217 9.57804C446.559 9.23668 446.027 8.70456 445.685 9.04592C443.095 11.6362 440.515 14.2165 437.924 16.8068C437.583 17.1482 438.115 17.6803 438.457 17.339Z" fill="#263238"/>
<path d="M594.789 366.038H158.059V412.795H594.789V366.038Z" fill="#1A5D94"/>
<path d="M308.107 370.928H158.059V407.905H308.107V370.928Z" fill="white"/>
<path d="M158.059 380.044C203.701 379.552 254.895 379.552 300.537 380.044C254.895 380.536 203.701 380.536 158.059 380.044Z" fill="#263238"/>
<path d="M158.059 384.432C203.701 383.94 254.895 383.94 300.537 384.432C254.895 384.924 203.701 384.924 158.059 384.432Z" fill="#263238"/>
<path d="M158.059 388.809C203.701 388.317 254.895 388.317 300.537 388.809C254.895 389.301 203.701 389.301 158.059 388.809Z" fill="#263238"/>
<path d="M158.059 393.197C203.701 392.705 254.895 392.705 300.537 393.197C254.895 393.689 203.701 393.689 158.059 393.197Z" fill="#263238"/>
<path d="M158.059 397.584C203.701 397.092 254.895 397.092 300.537 397.584C254.895 398.076 203.701 398.076 158.059 397.584Z" fill="#263238"/>
<path d="M158.059 401.972C203.701 401.48 254.895 401.48 300.537 401.972C254.895 402.463 203.701 402.463 158.059 401.972Z" fill="#263238"/>
<path d="M158.059 375.657C203.701 375.165 254.895 375.165 300.537 375.657C254.895 376.149 203.701 376.149 158.059 375.657Z" fill="#263238"/>
<path opacity="0.3" d="M359.843 366.038H346.45V412.795H359.843V366.038Z" fill="white"/>
<path opacity="0.3" d="M564.127 366.038H550.734V412.795H564.127V366.038Z" fill="white"/>
<path opacity="0.2" d="M316.611 366.038H158.059V412.795H316.611V366.038Z" fill="black"/>
<path d="M477.753 267.365H223.982V300.668H477.753V267.365Z" fill="#1A5D94"/>
<path d="M330.878 270.849H223.982V297.194H330.878V270.849Z" fill="white"/>
<path d="M223.982 277.335C256.492 276.843 292.977 276.843 325.487 277.335C292.977 277.827 256.492 277.827 223.982 277.335Z" fill="#263238"/>
<path d="M223.982 280.457C256.492 279.966 292.977 279.966 325.487 280.457C292.977 280.949 256.492 280.949 223.982 280.457Z" fill="#263238"/>
<path d="M223.982 283.59C256.492 283.098 292.977 283.098 325.487 283.59C292.977 284.082 256.492 284.082 223.982 283.59Z" fill="#263238"/>
<path d="M223.982 286.712C256.492 286.22 292.977 286.22 325.487 286.712C292.977 287.204 256.492 287.204 223.982 286.712Z" fill="#263238"/>
<path d="M223.982 289.835C256.492 289.343 292.977 289.343 325.487 289.835C292.977 290.327 256.492 290.327 223.982 289.835Z" fill="#263238"/>
<path d="M223.982 292.957C256.492 292.465 292.977 292.465 325.487 292.957C292.977 293.449 256.492 293.449 223.982 292.957Z" fill="#263238"/>
<path d="M223.982 274.212C256.492 273.721 292.977 273.721 325.487 274.212C292.977 274.704 256.492 274.704 223.982 274.212Z" fill="#263238"/>
<path opacity="0.3" d="M467.442 267.365H457.894V300.668H467.442V267.365Z" fill="black"/>
<path opacity="0.3" d="M365.948 267.365H356.4V300.668H365.948V267.365Z" fill="black"/>
<path opacity="0.2" d="M336.942 267.365H223.982V300.668H336.942V267.365Z" fill="black"/>
<path opacity="0.3" d="M448.256 279.122H374.432V288.871H448.256V279.122Z" fill="black"/>
<path d="M487.602 346.451H131.403V366.049H487.602V346.451Z" fill="#263238"/>
<path d="M281.069 348.981H131.403V363.519H281.069V348.981Z" fill="white"/>
<path d="M132.427 351.862C178.069 351.37 229.263 351.37 274.905 351.862C229.263 352.354 178.069 352.354 132.427 351.862Z" fill="#263238"/>
<path d="M132.427 356.25C178.069 355.758 229.263 355.758 274.905 356.25C229.263 356.742 178.069 356.742 132.427 356.25Z" fill="#263238"/>
<path d="M132.427 360.627C178.069 360.135 229.263 360.135 274.905 360.627C229.263 361.119 178.069 361.119 132.427 360.627Z" fill="#263238"/>
<path opacity="0.3" d="M323.599 346.451H319.834V366.049H323.599V346.451Z" fill="white"/>
<path opacity="0.3" d="M330.607 346.451H326.842V366.049H330.607V346.451Z" fill="white"/>
<path opacity="0.3" d="M463.627 346.451H459.862V366.049H463.627V346.451Z" fill="white"/>
<path opacity="0.3" d="M470.635 346.451H466.87V366.049H470.635V346.451Z" fill="white"/>
<path opacity="0.2" d="M284.704 346.44H131.383V366.038H284.704V346.44Z" fill="black"/>
<path d="M556.748 300.497H200.549V320.095H556.748V300.497Z" fill="#263238"/>
<path d="M350.215 303.027H200.549V317.565H350.215V303.027Z" fill="white"/>
<path d="M201.573 305.909C247.215 305.417 298.409 305.417 344.05 305.909C298.409 306.401 247.215 306.401 201.573 305.909Z" fill="#263238"/>
<path d="M201.573 310.296C247.215 309.804 298.409 309.804 344.051 310.296C298.409 310.788 247.215 310.788 201.573 310.296Z" fill="#263238"/>
<path d="M201.573 314.684C247.215 314.192 298.409 314.192 344.051 314.684C298.409 315.176 247.215 315.176 201.573 314.684Z" fill="#263238"/>
<path opacity="0.3" d="M392.744 300.497H388.979V320.095H392.744V300.497Z" fill="white"/>
<path opacity="0.3" d="M399.752 300.497H395.987V320.095H399.752V300.497Z" fill="white"/>
<path opacity="0.3" d="M532.782 300.497H529.017V320.095H532.782V300.497Z" fill="white"/>
<path opacity="0.3" d="M539.79 300.497H536.025V320.095H539.79V300.497Z" fill="white"/>
<path opacity="0.2" d="M353.85 300.487H200.529V320.085H353.85V300.487Z" fill="black"/>
<path d="M146.112 346.641L502.311 346.641V319.904L146.112 319.904V346.641Z" fill="#1A5D94"/>
<path opacity="0.4" d="M146.112 346.641L502.311 346.641V319.904L146.112 319.904V346.641Z" fill="white"/>
<path d="M352.655 344.111H502.321V322.977H352.655V344.111Z" fill="white"/>
<path d="M501.297 332.454C455.655 332.946 404.461 332.946 358.819 332.454C404.461 331.962 455.655 331.962 501.297 332.454Z" fill="#263238"/>
<path d="M501.297 336.842C455.655 337.334 404.461 337.334 358.82 336.842C404.461 336.35 455.655 336.35 501.297 336.842Z" fill="#263238"/>
<path d="M501.297 341.229C455.655 341.721 404.461 341.721 358.82 341.229C404.461 340.737 455.655 340.737 501.297 341.229Z" fill="#263238"/>
<path d="M501.297 327.906C455.655 328.398 404.461 328.398 358.819 327.906C404.461 327.414 455.655 327.414 501.297 327.906Z" fill="#263238"/>
<path opacity="0.2" d="M349.02 346.621H502.341V319.884H349.02V346.621Z" fill="black"/>
<path opacity="0.4" d="M318.489 327.906H177.959V336.842H318.489V327.906Z" fill="white"/>
<path d="M560.062 320.778C560.062 320.778 455.525 299.513 451.228 321.29C445.093 352.364 520.604 370.918 560.463 368.478C600.322 366.028 560.062 320.788 560.062 320.788V320.778Z" fill="#263238"/>
<path opacity="0.2" d="M560.062 320.778C560.062 320.778 455.525 299.513 451.228 321.29C445.093 352.364 520.604 370.918 560.463 368.478C600.322 366.028 560.062 320.788 560.062 320.788V320.778Z" fill="black"/>
<path opacity="0.2" d="M485.484 326.952L535.152 356.5L528.918 365.938C528.918 365.938 532.492 370.918 538.556 355.125L507.803 336.079C507.803 336.079 517.221 334.854 516.94 333.388C516.468 330.978 495.595 326.972 486.067 325.175C485.575 325.015 485.043 325.286 484.882 325.778C484.721 326.27 484.992 326.802 485.484 326.962V326.952Z" fill="black"/>
<path opacity="0.2" d="M536.819 352.956L528.767 366.912C539.249 368.428 549.871 368.95 560.463 368.468C563.947 368.347 567.381 367.614 570.594 366.319L573.405 360.797L566.628 348.117L536.819 352.956Z" fill="black"/>
<path d="M520.514 347.986L542.612 361.098L539.038 371.741L513.235 361.048L520.514 347.986Z" fill="#EBB373"/>
<path d="M554.65 364.271L552.743 371.902C552.743 371.902 551.156 372.283 550.705 373.889C550.454 374.793 551.187 377.243 551.187 377.243L546.106 398.267C546.106 398.267 544.661 397.925 544.098 397.534C543.406 397.062 542.843 396.58 542.391 396.088C540.795 394.351 540.554 391.781 540.444 389.873C540.253 386.67 538.135 377.383 538.135 377.383C538.135 377.383 537.361 374.964 534.721 372.895C533.255 371.741 532.542 370.245 532.653 369.311C532.864 367.394 534.219 366.641 536.006 366.801L538.084 366.992C539.53 365.847 539.932 363.97 538.938 362.193C538.938 362.193 537.582 357.685 539.51 358.398C540.614 358.799 545.464 360.797 549.339 362.253C550.243 362.594 551.096 362.916 551.849 363.197C553.516 363.829 554.66 364.261 554.66 364.261L554.65 364.271Z" fill="#263238"/>
<path d="M539.068 382.353C539.008 382.243 539.028 382.092 539.128 382.002C539.56 381.58 540.112 381.269 540.725 381.118C541.056 381.038 541.217 381.56 540.885 381.64C540.333 381.771 539.851 382.042 539.47 382.413C539.339 382.534 539.149 382.514 539.058 382.363L539.068 382.353Z" fill="#1A5D94"/>
<path d="M538.586 380.516C538.526 380.405 538.556 380.255 538.647 380.164C539.078 379.743 539.631 379.431 540.243 379.281C540.574 379.201 540.735 379.723 540.404 379.803C539.851 379.933 539.369 380.204 538.988 380.576C538.857 380.696 538.667 380.676 538.576 380.526L538.586 380.516Z" fill="#1A5D94"/>
<path d="M538.175 378.648C538.114 378.538 538.135 378.387 538.235 378.297C538.667 377.875 539.219 377.564 539.831 377.413C540.163 377.333 540.323 377.855 539.992 377.936C539.44 378.066 538.958 378.337 538.576 378.709C538.446 378.829 538.255 378.809 538.165 378.658L538.175 378.648Z" fill="#1A5D94"/>
<path opacity="0.2" d="M551.839 363.207C553.506 363.839 554.65 364.271 554.65 364.271L552.743 371.902C552.743 371.902 551.156 372.283 550.705 373.889C550.454 374.793 551.186 377.243 551.186 377.243L546.106 398.267C546.106 398.267 544.66 397.925 544.098 397.534C543.777 397.323 543.496 397.102 543.235 396.881L551.437 363.046C551.578 363.096 551.729 363.157 551.859 363.207H551.839Z" fill="white"/>
<path d="M535.233 380.235C534.701 380.235 534.189 380.094 533.787 379.823C533.466 379.612 533.145 379.221 533.225 378.789C533.305 378.367 533.697 378.126 534.028 377.996C534.681 377.735 535.454 377.665 536.317 377.795C537.07 377.905 537.803 378.156 538.516 378.387L538.737 378.468L538.556 378.608C538.134 378.93 536.699 379.994 535.936 380.154C535.705 380.205 535.474 380.235 535.243 380.235H535.233ZM535.484 377.976C534.982 377.976 534.52 378.056 534.108 378.217C533.898 378.297 533.526 378.498 533.466 378.819C533.406 379.13 533.667 379.432 533.918 379.602C534.44 379.954 535.153 380.064 535.865 379.903C536.498 379.763 537.693 378.92 538.195 378.538C537.562 378.327 536.92 378.126 536.267 378.026C535.996 377.986 535.735 377.966 535.474 377.966L535.484 377.976Z" fill="#1A5D94"/>
<path d="M538.606 378.669L538.416 378.528C537.813 378.076 537.201 377.614 536.679 377.062C536.076 376.43 535.695 375.757 535.534 375.064C535.454 374.723 535.424 374.261 535.735 373.96C536.046 373.649 536.548 373.689 536.91 373.829C537.552 374.08 538.104 374.653 538.406 375.396C538.707 376.128 538.647 377.906 538.626 378.438V378.679L538.606 378.669ZM536.347 373.97C536.177 373.97 536.016 374.01 535.896 374.13C535.665 374.361 535.715 374.773 535.765 375.004C535.916 375.647 536.277 376.279 536.839 376.881C537.291 377.363 537.833 377.775 538.355 378.177C538.386 377.163 538.355 375.978 538.145 375.486C537.863 374.813 537.371 374.291 536.789 374.06C536.649 374.01 536.488 373.97 536.337 373.97H536.347Z" fill="#1A5D94"/>
<path d="M515.223 255.99C515.223 255.99 512.422 289.855 511.468 291.692C508.225 297.917 485.836 309.081 485.836 309.081L474.189 307.003L466.097 314.172L471.689 318.298L478.035 315.688C481.559 316.21 485.113 316.411 488.667 316.3C494.641 316.119 524.44 308.67 529.008 300.497C533.576 292.325 533.516 254.323 533.516 254.323L515.213 255.99H515.223Z" fill="#EBB373"/>
<path d="M534.44 268.701C534.44 268.701 542.462 238.791 531.136 230.89C519.811 222.988 512.201 264.002 512.201 264.002L534.44 268.701Z" fill="#1A5D94"/>
<path opacity="0.5" d="M534.44 268.701C534.44 268.701 542.462 238.791 531.136 230.89C519.811 222.988 512.201 264.002 512.201 264.002L534.44 268.701Z" fill="white"/>
<path d="M529.018 323.127L527.944 283.831L527.201 230.006L550.263 224.284L566.417 224.133L593.736 232.637L594.659 245.819C594.659 245.819 593.816 306.511 594.017 308.339C594.268 310.577 601.195 324.443 601.195 324.443C572.35 331.912 528.606 325.135 528.998 323.117L529.018 323.127Z" fill="#1A5D94"/>
<path opacity="0.2" d="M527.783 267.295L527.391 243.862L523.275 266.341L527.783 267.295Z" fill="black"/>
<path opacity="0.2" d="M577.039 269.544C576.316 269.423 573.385 268.56 573.385 268.56L580.051 245.719L569.73 270.809L576.447 273.259L577.029 269.544H577.039Z" fill="black"/>
<path d="M579.599 250.88C579.599 250.88 575.071 288.52 571.919 292.114C566.598 298.198 539.831 314.704 539.831 314.704L526.096 310.336C525.132 310.055 524.088 310.256 523.325 310.869L514.239 318.238L515.153 318.961C515.544 319.272 516.106 319.322 516.548 319.081L517.974 318.318L516.408 319.945L516.93 320.356C517.452 320.768 518.165 320.909 518.807 320.708L522.934 319.473L519.179 322.133C520.052 322.826 521.257 323.047 522.341 322.706L528.365 320.798C532.542 321.621 536.779 322.103 541.036 322.234C548.204 322.465 581.658 309.654 587.702 300.829C593.746 291.993 599.187 255.9 599.187 255.9L579.599 250.87V250.88Z" fill="#EBB373"/>
<path d="M598.324 275.277C598.324 275.277 605.743 241.07 594.418 233.159C583.093 225.257 573.385 268.55 573.385 268.55L598.324 275.277Z" fill="#1A5D94"/>
<path opacity="0.5" d="M598.324 275.277C598.324 275.277 605.743 241.07 594.418 233.159C583.093 225.257 573.385 268.55 573.385 268.55L598.324 275.277Z" fill="white"/>
<path d="M508.887 321.129L529.791 320.517L551.969 319.864C552.009 321.521 550.212 322.906 547.953 322.967L525.795 323.619L513.114 323.991H513.054L477.774 325.035C475.535 325.085 473.697 323.81 473.657 322.173L508.887 321.139V321.129Z" fill="#263238"/>
<path d="M477.131 324.874L516.488 323.71C517.171 323.69 517.703 323.228 517.683 322.676C517.683 322.575 517.653 322.475 517.612 322.374L498.918 282.746C498.446 281.612 497.101 280.869 495.605 280.909L456.218 282.074C455.555 282.094 455.023 282.546 455.043 283.078C455.043 283.188 455.073 283.299 455.123 283.409L473.818 323.037C474.3 324.161 475.635 324.904 477.131 324.874Z" fill="#263238"/>
<path opacity="0.7" d="M456.218 282.074L495.605 280.909C497.101 280.869 498.446 281.612 498.918 282.746L516.91 320.878L529.801 320.497L551.979 319.844C552.02 321.501 550.222 322.886 547.963 322.947L525.805 323.599L513.125 323.971H513.064L477.784 325.015C477.071 325.035 476.418 324.904 475.826 324.684C474.902 324.402 474.149 323.81 473.818 323.027L455.123 283.399C455.073 283.299 455.043 283.188 455.043 283.068C455.023 282.536 455.555 282.084 456.218 282.064V282.074Z" fill="white"/>
<path d="M480.504 302.756C481.408 304.654 483.175 305.929 484.45 305.617C485.725 305.306 486.016 303.549 485.133 301.642C484.249 299.734 482.472 298.489 481.187 298.8C479.912 299.112 479.571 300.808 480.494 302.756H480.504Z" fill="white"/>
<g opacity="0.3">
<path d="M498.918 282.756L516.909 320.888L515.082 320.938L495.605 280.909C497.101 280.869 498.446 281.612 498.918 282.746V282.756Z" fill="black"/>
</g>
<path d="M567.109 226.994C567.109 226.994 562.933 218.721 565.633 205.027C563.977 204.254 566.165 200.83 566.095 199.455L548.816 212.346C549.619 216.583 548.806 224.966 548.194 228.53L554.86 234.585L567.099 226.994H567.109Z" fill="#EBB373"/>
<path opacity="0.2" d="M549.278 214.886L559.298 214.083C557.611 217.055 556.417 219.665 549.087 219.966C549.087 219.966 549.027 216.302 549.278 214.876V214.886Z" fill="black"/>
<path d="M542.371 174.094C539.288 177.728 537.953 188.21 544.971 187.868C551.999 187.537 547.662 167.849 542.371 174.094Z" fill="#263238"/>
<path d="M571.276 193.591C567.39 204.615 565.422 210.92 558.113 215.007C527.531 227.416 530.855 175.037 554.509 172.035C566.577 170.831 575.161 182.557 571.276 193.591Z" fill="#EBB373"/>
<path d="M580.332 179.606C578.746 168.853 561.276 169.395 556.045 171.323C555.262 171.614 563.133 178.842 562.631 178.471L566.527 181.202C572.019 183.983 562.109 192.838 566.838 202.436C577.29 201.081 581.135 187.447 580.332 179.606Z" fill="#263238"/>
<path d="M573.043 204.214C570.021 209.846 559.057 211.332 561.908 202.637C564.147 194.083 577.43 194.133 573.043 204.214Z" fill="#EBB373"/>
<path d="M554.539 192.296C553.786 195.017 551.025 194.174 551.828 191.493C552.581 188.772 555.342 189.615 554.539 192.296Z" fill="#263238"/>
<path d="M542.893 189.264C542.14 191.985 539.379 191.141 540.182 188.461C540.935 185.74 543.696 186.583 542.893 189.264Z" fill="#263238"/>
<path d="M546.808 189.676C546.808 189.676 541.547 194.344 539.72 196.342C540.905 198.24 543.846 198.36 543.846 198.36L546.808 189.676Z" fill="#E4873E"/>
<path d="M558.635 187.648C558.445 187.668 558.244 187.587 558.113 187.417C556.637 185.399 554.579 185.469 554.559 185.469C552.33 183.993 556.969 183.672 559.017 186.764C559.278 187.095 559.047 187.607 558.635 187.648Z" fill="#263238"/>
<path opacity="0.2" d="M565.282 202.527C565.282 202.527 565.232 202.527 565.202 202.517C565.071 202.477 565.001 202.336 565.041 202.206C565.573 200.539 567.541 198.913 569.177 198.792C569.94 198.742 570.944 198.953 571.587 200.268C571.647 200.388 571.587 200.539 571.477 200.599C571.356 200.659 571.206 200.609 571.145 200.489C570.724 199.635 570.081 199.234 569.218 199.294C567.792 199.394 565.995 200.89 565.523 202.356C565.493 202.467 565.392 202.527 565.282 202.527Z" fill="black"/>
<path d="M539.369 183.009C538.987 182.818 538.977 182.216 539.369 182.015C542.069 180.539 544.328 181.764 544.439 181.804C545.071 182.136 544.549 183.14 543.917 182.798C543.616 182.316 541.437 182.366 539.379 183.009H539.369Z" fill="#263238"/>
<path d="M575.824 196.814C575.824 196.814 568.073 185.74 558.605 180.579C548.124 174.867 540.453 176.563 540.453 176.563C540.453 176.563 538.656 174.806 539.811 173.812C540.965 172.818 542.039 173.692 542.039 173.692C542.039 173.692 553.284 161.714 566.698 165.539C580.121 169.365 584.589 177.658 584.047 178.26C581.286 181.322 579.7 176.573 579.7 176.573C579.7 176.573 582.963 180.921 579.198 189.816L578.083 193.3C578.083 193.3 579.007 197.366 575.814 196.824L575.824 196.814Z" fill="#263238"/>
<path opacity="0.7" d="M575.824 196.814C575.824 196.814 568.073 185.74 558.605 180.579C548.124 174.867 540.453 176.563 540.453 176.563C540.453 176.563 538.656 174.806 539.811 173.812C540.965 172.818 542.039 173.692 542.039 173.692C542.039 173.692 553.284 161.714 566.698 165.539C580.121 169.365 584.589 177.658 584.047 178.26C581.286 181.322 579.7 176.573 579.7 176.573C579.7 176.573 582.963 180.921 579.198 189.816L578.083 193.3C578.083 193.3 579.007 197.366 575.814 196.824L575.824 196.814Z" fill="white"/>
<path d="M558.385 180.087C556.949 179.605 555.885 178.17 555.844 176.654C555.814 175.66 556.176 174.706 556.437 173.742C556.688 172.778 556.828 171.714 556.377 170.82C555.985 170.067 555.172 169.545 554.318 169.515C553.465 169.485 552.622 169.947 552.18 170.67C552.501 170.067 552.28 169.304 551.839 168.792C551.397 168.28 550.764 167.969 550.152 167.678C549.057 167.146 547.822 166.594 546.648 166.945C545.473 167.296 544.74 168.451 544.329 169.606C543.806 171.092 543.666 172.758 544.198 174.234C544.911 176.222 546.748 177.628 548.726 178.35C550.704 179.073 552.842 179.194 554.951 179.314" fill="#263238"/>
<path opacity="0.2" d="M580.131 177.346C580.131 177.346 578.605 172.256 572.31 169.706L580.131 177.346Z" fill="black"/>
<path opacity="0.3" d="M577.35 193.079C573.565 185.65 565.654 178.15 557.652 174.415L557.762 174.184C565.804 177.939 573.766 185.479 577.581 192.959L577.36 193.069L577.35 193.079Z" fill="black"/>
<path d="M544.74 202.547C545.563 203.993 546.276 205.509 546.889 207.055C547.17 206.995 547.471 206.944 547.752 206.864C551.648 205.991 553.174 204.304 553.656 202.687C553.876 201.894 553.917 201.061 553.756 200.248C553.676 199.786 553.535 199.344 553.334 198.922C551.547 200.619 547.983 201.714 546.055 202.216C545.212 202.396 544.73 202.537 544.73 202.537L544.74 202.547Z" fill="#263238"/>
<path d="M546.015 202.185L546.688 203.501C550.342 202.667 552.812 201.613 553.716 200.218C553.635 199.756 553.495 199.314 553.294 198.892C551.497 200.609 547.943 201.683 546.015 202.185Z" fill="white"/>
<path d="M547.702 206.834C551.597 205.961 553.124 204.274 553.605 202.657C552.13 203.019 550.734 203.631 549.479 204.475C548.656 205.057 548.033 205.88 547.702 206.824V206.834Z" fill="#C15854"/>
<path d="M499.33 365.968L474.099 370.797L469.722 360.456L496.127 351.36L499.33 365.968Z" fill="#EBB373"/>
<path d="M462.985 376.4L459.35 369.422C459.35 369.422 460.284 368.076 459.561 366.58C459.15 365.737 456.981 364.392 456.981 364.392L446.851 345.276C446.851 345.276 448.156 344.573 448.839 344.492C449.662 344.382 450.405 344.372 451.077 344.442C453.417 344.683 455.304 346.45 456.66 347.806C458.919 350.075 466.67 355.627 466.67 355.627C466.67 355.627 468.848 356.922 472.192 356.721C474.059 356.611 475.575 357.263 476.117 358.036C477.232 359.613 476.72 361.079 475.274 362.143L473.587 363.378C473.266 365.195 474.21 366.872 476.127 367.534C476.127 367.534 480.133 370.004 478.226 370.757C477.131 371.179 472.182 372.906 468.306 374.382C467.402 374.723 466.549 375.054 465.796 375.335C464.129 375.968 462.995 376.4 462.995 376.4H462.985Z" fill="#263238"/>
<path d="M462.664 352.534C462.784 352.585 462.865 352.705 462.854 352.836C462.814 353.438 462.613 354.041 462.242 354.563C462.051 354.834 461.579 354.563 461.77 354.281C462.091 353.82 462.272 353.298 462.312 352.765C462.322 352.585 462.493 352.474 462.654 352.534H462.664Z" fill="#1A5D94"/>
<path d="M464.24 353.589C464.36 353.639 464.441 353.759 464.431 353.89C464.391 354.492 464.19 355.095 463.818 355.617C463.627 355.888 463.156 355.617 463.346 355.336C463.668 354.874 463.848 354.352 463.889 353.819C463.899 353.639 464.069 353.528 464.23 353.589H464.24Z" fill="#1A5D94"/>
<path d="M465.786 354.723C465.907 354.763 465.987 354.894 465.977 355.024C465.937 355.627 465.736 356.229 465.364 356.751C465.174 357.022 464.702 356.751 464.893 356.47C465.214 356.008 465.395 355.486 465.435 354.954C465.445 354.773 465.615 354.663 465.776 354.723H465.786Z" fill="#1A5D94"/>
<path opacity="0.2" d="M459.561 366.58C459.15 365.737 456.981 364.392 456.981 364.392L446.851 345.275C446.851 345.275 448.156 344.573 448.839 344.492C449.22 344.442 449.582 344.422 449.923 344.412L466.218 375.175C466.077 375.225 465.927 375.285 465.796 375.335C464.13 375.968 462.985 376.399 462.985 376.399L459.35 369.422C459.35 369.422 460.284 368.076 459.561 366.58Z" fill="white"/>
<path d="M465.495 355.225L465.535 354.994C465.636 354.472 466.007 352.735 466.469 352.093C466.941 351.44 467.603 351.018 468.296 350.928C468.678 350.878 469.18 350.958 469.401 351.33C469.571 351.611 469.551 352.012 469.33 352.454C469.009 353.087 468.477 353.649 467.744 354.121C467.101 354.542 466.389 354.834 465.706 355.125L465.485 355.215L465.495 355.225ZM468.517 351.169C468.457 351.169 468.397 351.169 468.336 351.179C467.714 351.259 467.111 351.651 466.68 352.243C466.358 352.685 466.047 353.82 465.836 354.814C466.449 354.553 467.061 354.281 467.623 353.92C468.316 353.468 468.818 352.946 469.119 352.354C469.22 352.143 469.37 351.751 469.2 351.47C469.069 351.249 468.788 351.169 468.527 351.169H468.517Z" fill="#1A5D94"/>
<path d="M469.109 357.625C468.668 357.625 468.216 357.514 467.774 357.303C467.071 356.962 465.927 355.587 465.595 355.175L465.445 354.994L465.676 354.974C466.429 354.914 467.192 354.844 467.955 354.914C468.828 354.994 469.551 355.245 470.133 355.657C470.535 355.938 470.746 356.279 470.716 356.621C470.686 357.062 470.284 357.364 469.923 357.494C469.662 357.585 469.38 357.635 469.099 357.635L469.109 357.625ZM465.947 355.195C466.599 355.978 467.403 356.832 467.885 357.073C468.537 357.394 469.26 357.454 469.842 357.243C470.133 357.133 470.455 356.912 470.475 356.591C470.495 356.259 470.184 355.988 469.993 355.848C469.451 355.466 468.768 355.225 467.935 355.155C467.272 355.095 466.599 355.135 465.937 355.195H465.947Z" fill="#1A5D94"/>
<path d="M594.258 351.601C599.469 342.735 611.135 318.77 585.915 314.915C560.704 311.059 478.085 353.348 478.085 353.348L483.868 369.181L561.497 354.583C561.497 354.583 551.246 369.141 564.168 368.117C582.943 365.697 587.33 361.058 594.258 351.601Z" fill="#263238"/>
<path opacity="0.2" d="M559.66 355.065L580.854 347.705C580.854 347.705 563.224 359.211 556.678 360.717L559.65 355.065H559.66Z" fill="black"/>
<path d="M405.104 142.849L412.694 134.064L420.425 136.795L415.154 147.076L405.104 142.849Z" fill="#EEC1BB"/>
<path d="M411.55 133.331C411.55 133.331 410.887 129.355 412.865 126.665C414.833 123.974 415.696 121.303 417.293 119.406C418.899 117.508 418.929 120.862 418.588 122.649C418.246 124.436 417.875 126.464 419.26 126.504C420.646 126.544 431.138 120.912 433.055 121.193C434.973 121.464 433.557 122.91 433.557 122.91C433.557 122.91 436.148 121.615 436.941 122.498C437.152 122.729 437.252 123.593 436.168 124.376C433.728 126.123 428.407 129.526 428.407 129.526C428.708 129.325 435.565 125.59 436.67 125.169C438.106 124.617 439.069 125.088 439.361 125.932C439.782 127.137 431.429 132.046 431.228 132.498C431.228 132.498 435.937 129.506 437.373 130.299C438.808 131.092 435.947 133.141 433.086 134.456C430.455 135.671 425.616 138.733 422.825 139.707C419.381 140.901 416.811 140.942 414.451 138.472C412.092 136.002 411.55 133.341 411.55 133.341V133.331Z" fill="#EEC1BB"/>
<path opacity="0.3" d="M427.263 126.745C427.263 126.745 427.182 126.725 427.162 126.685C427.122 126.625 427.142 126.544 427.202 126.514C429.14 125.239 431.158 124.044 433.196 122.96C433.256 122.93 433.337 122.96 433.367 123.01C433.397 123.07 433.367 123.151 433.317 123.181C431.289 124.265 429.271 125.46 427.343 126.725C427.323 126.735 427.303 126.745 427.273 126.745H427.263Z" fill="black"/>
<path opacity="0.3" d="M429.491 133.894C429.431 133.894 429.381 133.853 429.371 133.793C428.708 130.912 427.162 128.201 425.024 126.163C424.973 126.112 424.973 126.032 425.024 125.982C425.074 125.932 425.154 125.932 425.204 125.982C427.383 128.05 428.959 130.811 429.632 133.743C429.652 133.813 429.602 133.873 429.542 133.894C429.542 133.894 429.522 133.894 429.511 133.894H429.491Z" fill="black"/>
<path opacity="0.3" d="M416.791 134.516C416.791 134.516 416.71 134.496 416.68 134.456C416.65 134.396 416.67 134.315 416.731 134.285C417.755 133.693 418.568 132.709 418.98 131.594C419.391 130.48 419.391 129.205 419 128.09C418.979 128.02 419.01 127.95 419.08 127.93C419.15 127.91 419.22 127.94 419.241 128.01C419.652 129.185 419.652 130.52 419.22 131.685C418.799 132.849 417.935 133.884 416.861 134.506C416.841 134.516 416.821 134.526 416.801 134.526L416.791 134.516Z" fill="black"/>
<path d="M438.196 285.608L442.122 273.851L413.719 258.008L407.554 275.839L438.196 285.608Z" fill="#EEC1BB"/>
<path d="M438.618 269.755L436.53 273.63C436.058 274.504 436.068 275.558 436.499 276.461C438.347 280.337 436.299 281.401 432.112 282.285C431.098 283.73 432.654 285.106 433.056 285.487L442.041 294.052C442.784 294.774 443.979 294.764 444.702 294.011C444.833 293.881 444.943 293.73 445.023 293.56C447.553 288.851 448.748 286.622 451.901 280.759L461.539 262.837C464.17 257.948 459.782 254.293 458.246 256.06C451.379 264.032 445.274 269.012 441.138 270.397C440.395 270.668 440.335 269.946 438.608 269.745L438.618 269.755Z" fill="#263238"/>
<path d="M446.138 262.948C446.067 262.385 445.726 261.883 445.224 261.612C444.973 261.432 444.642 261.411 444.371 261.562C442.855 262.315 442.513 268.379 442.493 269.072C442.483 269.142 442.503 269.213 442.553 269.273C442.644 269.373 442.794 269.383 442.895 269.293C443.818 268.249 444.632 267.124 445.314 265.909C445.897 265.036 446.188 264.002 446.138 262.958V262.948ZM444.571 262.054C444.682 261.984 444.832 262.004 444.933 262.084C445.284 262.295 445.525 262.656 445.596 263.058C445.826 264.604 444.039 267.074 443.005 268.359C443.196 265.869 443.738 262.476 444.571 262.054Z" fill="#1A5D94"/>
<path d="M443.035 269.142C443.206 267.355 442.453 263.028 441.108 262.506C440.827 262.385 440.405 262.405 439.963 263.018C438.226 265.518 442.393 269.213 442.594 269.323C442.664 269.393 442.764 269.413 442.855 269.383C442.895 269.343 442.925 269.293 442.935 269.233L443.035 269.142ZM440.304 263.319C440.616 262.857 440.796 262.948 440.857 262.978C441.7 263.249 442.503 266.542 442.483 268.57C441.549 267.646 439.28 265.166 440.194 263.49L440.304 263.319Z" fill="#1A5D94"/>
<path d="M443.417 273.349C443.327 273.349 443.246 273.299 443.196 273.219C442.403 271.823 442.262 270.086 442.825 268.57C442.875 268.44 443.015 268.369 443.146 268.419C443.276 268.47 443.337 268.61 443.296 268.741C442.784 270.116 442.915 271.693 443.628 272.968C443.698 273.088 443.658 273.239 443.537 273.309C443.497 273.329 443.457 273.339 443.417 273.339V273.349Z" fill="#1A5D94"/>
<path d="M446.519 271.913C446.429 271.913 446.349 271.863 446.298 271.783C445.505 270.387 445.365 268.65 445.927 267.134C445.977 267.004 446.118 266.944 446.248 266.984C446.379 267.034 446.439 267.175 446.399 267.305C445.887 268.681 446.007 270.257 446.73 271.532C446.8 271.652 446.76 271.803 446.64 271.873C446.6 271.893 446.559 271.903 446.519 271.903V271.913Z" fill="#1A5D94"/>
<path d="M449.662 269.735C449.571 269.735 449.491 269.685 449.441 269.604C448.648 268.209 448.507 266.472 449.069 264.956C449.12 264.825 449.26 264.755 449.391 264.805C449.521 264.855 449.581 264.996 449.541 265.126C449.029 266.502 449.16 268.078 449.873 269.353C449.943 269.474 449.903 269.624 449.782 269.695C449.742 269.715 449.702 269.725 449.662 269.725V269.735Z" fill="#1A5D94"/>
<path opacity="0.3" d="M428.728 266.381L432.212 268.329L426.811 281.973L422.735 280.678L428.728 266.381Z" fill="black"/>
<path d="M349.794 206.764L363.96 215.428C382.153 216.332 443.638 216.834 443.819 238.711C449.853 264.494 394.181 262.034 357.163 262.395C356.912 262.395 356.701 262.546 356.551 262.787C356.22 263.299 352.635 265.136 348.047 265.869C342.394 266.763 329.473 267.556 321.17 266.241C306.843 263.972 302.716 250.368 305.457 231.231C306.582 223.37 310.929 216.985 312.244 207.185L349.794 206.774V206.764Z" fill="#263238"/>
<path opacity="0.2" d="M310.969 235.86L311.06 236.753C311.06 236.753 357.886 229.002 386.41 247.747C386.41 247.747 417.323 240.167 423.608 234.394C389.372 252.406 358.709 231.553 358.709 231.553L343.609 224.806C331.27 219.294 318.841 223.5 310.979 235.86H310.969Z" fill="black"/>
<path d="M363.98 266.191L369.392 277.335L400.777 268.811L392.725 251.743L363.98 266.191Z" fill="#EEC1BB"/>
<path d="M376.32 277.094L373.729 273.53C373.147 272.727 372.193 272.275 371.199 272.275C366.902 272.265 366.842 269.946 367.846 265.799C366.982 264.263 365.075 265.066 364.553 265.267L352.936 269.654C351.963 270.016 351.461 271.09 351.812 272.074C351.872 272.245 351.963 272.415 352.073 272.556C355.216 276.883 356.712 278.921 360.627 284.303L372.605 300.758C375.868 305.246 381.069 302.887 380.135 300.728C375.928 291.08 374.091 283.419 374.633 279.092C374.713 278.309 375.386 278.57 376.32 277.094Z" fill="#263238"/>
<path d="M379.181 286.823C379.723 287.004 380.316 286.913 380.788 286.582C381.059 286.431 381.219 286.14 381.199 285.839C381.179 284.152 375.858 281.211 375.256 280.889C375.195 280.849 375.115 280.839 375.045 280.859C374.914 280.899 374.844 281.03 374.874 281.16C375.406 282.445 376.079 283.66 376.872 284.805C377.404 285.708 378.217 286.411 379.181 286.823ZM380.657 285.799C380.657 285.929 380.597 286.05 380.476 286.11C380.125 286.331 379.703 286.401 379.312 286.291C377.816 285.829 376.37 283.148 375.657 281.662C377.816 282.917 380.647 284.875 380.667 285.809L380.657 285.799Z" fill="#1A5D94"/>
<path d="M374.944 281.341C376.47 282.275 380.707 283.469 381.762 282.475C381.992 282.275 382.153 281.893 381.792 281.231C380.296 278.59 375.155 280.729 374.964 280.869C374.874 280.899 374.804 280.98 374.794 281.08C374.814 281.14 374.844 281.18 374.894 281.22L374.934 281.351L374.944 281.341ZM381.37 281.411C381.651 281.893 381.49 282.014 381.43 282.054C380.818 282.696 377.515 281.994 375.687 281.1C376.932 280.658 380.135 279.694 381.26 281.241L381.37 281.411Z" fill="#1A5D94"/>
<path d="M375.366 281.823C375.296 281.823 375.236 281.793 375.185 281.743C374.171 280.688 372.695 280.116 371.24 280.217C371.099 280.237 370.979 280.116 370.969 279.986C370.969 279.845 371.059 279.725 371.199 279.715C372.806 279.594 374.432 280.237 375.547 281.401C375.647 281.502 375.637 281.662 375.547 281.753C375.497 281.803 375.436 281.823 375.376 281.823H375.366Z" fill="#1A5D94"/>
<path d="M375.316 285.247C375.246 285.247 375.185 285.216 375.135 285.166C374.121 284.112 372.645 283.54 371.189 283.64C371.069 283.66 370.928 283.55 370.918 283.409C370.908 283.269 371.019 283.148 371.149 283.138C372.756 283.028 374.382 283.66 375.497 284.825C375.597 284.925 375.587 285.086 375.497 285.176C375.446 285.226 375.386 285.247 375.326 285.247H375.316Z" fill="#1A5D94"/>
<path d="M375.918 289.012C375.848 289.012 375.788 288.981 375.738 288.931C374.723 287.877 373.248 287.305 371.792 287.405C371.671 287.425 371.531 287.315 371.521 287.174C371.521 287.034 371.611 286.913 371.752 286.903C373.358 286.783 374.985 287.425 376.099 288.59C376.199 288.69 376.189 288.851 376.099 288.941C376.049 288.992 375.989 289.012 375.928 289.012H375.918Z" fill="#1A5D94"/>
<path d="M429.722 265.377C429.722 265.377 357.645 225.027 332.887 224.263C308.128 223.5 305.327 242.175 314.433 256.562C323.539 270.939 346.39 263.972 346.39 263.972C346.39 263.972 328.318 259.393 330.557 254.494C332.796 249.594 339.473 257.195 339.473 257.195C339.473 257.195 383.267 275.176 422.343 281.552L429.732 265.377H429.722Z" fill="#263238"/>
<path opacity="0.2" d="M392.584 245.398L415.787 258.791L418.237 258.53L396.269 244.695L392.584 245.398Z" fill="black"/>
<path opacity="0.2" d="M355.768 263.359C355.768 263.359 332.385 254.082 332.646 254.082C332.907 254.082 347.384 264.936 352.123 264.885L355.768 263.359Z" fill="black"/>
<path d="M360.728 137.056C360.728 137.056 363.549 136.404 373.89 148.462C380.908 156.644 391.57 162.668 391.57 162.668C392.484 160.7 408.598 137.056 408.598 137.056L418.849 142.879C418.849 142.879 403.799 181.794 394.01 183.331C384.221 184.857 361.41 165.188 361.41 165.188L360.717 137.066L360.728 137.056Z" fill="#1A5D94"/>
<path d="M304.463 151.363C308.921 164.756 309.132 195.017 307.556 211.734H362.705C371.4 178.381 363.87 154.666 363.127 146.855C362.203 137.347 360.738 136.986 360.738 136.986C360.738 136.986 350.426 135.982 341.451 136.052C334.503 136.313 327.575 137.066 320.738 138.301C315.648 139.154 310.608 140.289 305.638 141.695C303.51 142.297 302.275 144.516 302.877 146.654C302.897 146.725 302.917 146.785 302.937 146.855C303.469 148.351 303.981 149.887 304.463 151.373V151.363Z" fill="#1A5D94"/>
<path opacity="0.2" d="M307.546 211.734C308.861 196.162 318.961 178.2 317.375 162.658C322.063 169.325 323.62 182.407 325.527 197.015C326.15 201.774 343.418 206.583 344.232 211.503L307.546 211.734Z" fill="black"/>
<path d="M316.27 140.078C313.7 143.753 345.316 149.666 345.316 149.666C345.316 149.666 363.82 137.658 342.214 135.791C337.806 135.399 320.337 134.305 316.27 140.078Z" fill="#CD877B"/>
<path d="M346.35 156.473C346.35 156.473 363.388 142.417 354.573 133.994C345.758 125.58 304.252 121.815 307.766 140.982C307.766 140.982 313.108 139.405 318.499 144.546C329.865 155.419 346.36 156.473 346.36 156.473H346.35Z" fill="#1A5D94"/>
<path opacity="0.2" d="M344.925 152.427C344.925 152.427 354.573 144.937 351.169 138.181C347.776 131.434 327.706 124.034 313.319 133.341C316.762 135.108 319.975 137.317 322.847 139.907C328.549 144.787 344.914 152.417 344.914 152.417L344.925 152.427Z" fill="black"/>
<path opacity="0.2" d="M341.26 153.381C341.26 153.913 340.838 154.355 340.306 154.355C339.774 154.355 339.332 153.933 339.332 153.401C339.332 152.869 339.754 152.427 340.286 152.427C340.286 152.427 340.306 152.427 340.316 152.427C340.838 152.427 341.26 152.859 341.27 153.381H341.26Z" fill="black"/>
<path opacity="0.2" d="M350.878 150.61C350.878 151.132 350.467 151.564 349.945 151.574H349.935C349.402 151.634 348.92 151.263 348.86 150.731C348.8 150.198 349.171 149.716 349.704 149.656C349.784 149.656 349.854 149.656 349.935 149.656C350.457 149.656 350.888 150.078 350.888 150.61H350.878Z" fill="black"/>
<path d="M359.834 160.258C359.834 160.791 359.412 161.232 358.88 161.232C358.348 161.232 357.906 160.811 357.906 160.279C357.906 159.746 358.328 159.305 358.86 159.305H358.87C359.402 159.305 359.824 159.726 359.834 160.258Z" fill="#263238"/>
<path d="M339.081 165.178C339.081 165.7 338.66 166.132 338.127 166.132C337.605 166.132 337.174 165.71 337.174 165.178C337.174 164.646 337.595 164.224 338.127 164.224C338.65 164.224 339.081 164.646 339.081 165.178Z" fill="#263238"/>
<path d="M358.649 160.66C358.649 160.66 354.914 160.158 354.272 155.389C354.191 153.08 352.304 151.253 349.995 151.263C349.804 151.263 349.633 151.122 349.633 150.931C349.613 150.751 349.754 150.58 349.944 150.57H349.975C352.625 150.57 354.824 152.638 354.975 155.289C355.537 159.485 358.709 159.957 358.729 159.967C358.92 159.987 359.051 160.158 359.041 160.349C359.011 160.54 358.84 160.67 358.649 160.66Z" fill="#263238"/>
<path d="M338.127 165.178C337.937 165.178 337.786 165.028 337.776 164.847C337.696 162.397 338.599 160.008 340.276 158.22C340.939 157.638 341.32 156.815 341.35 155.941C341.28 155.068 340.898 154.235 340.286 153.612C340.125 153.502 340.095 153.281 340.206 153.12C340.316 152.96 340.537 152.929 340.698 153.04C340.728 153.06 340.748 153.08 340.768 153.11C341.521 153.853 341.983 154.847 342.053 155.901C342.033 156.965 341.571 157.98 340.778 158.692C339.252 160.339 338.419 162.528 338.469 164.777C338.469 164.967 338.338 165.128 338.147 165.158L338.117 165.188L338.127 165.178Z" fill="#263238"/>
<path d="M375.195 237.436L377.966 237.938C377.966 237.938 377.193 235.448 387.022 232.185C396.851 228.922 406.63 227.155 406.63 227.155C406.63 227.155 388.869 226.262 388.408 226.262C387.946 226.262 371.51 232.095 371.51 232.095L375.195 237.426V237.436Z" fill="#1A5D94"/>
<path d="M368.167 219.304C368.659 219.304 406.64 227.155 406.64 227.155C406.64 227.155 380.235 226.191 375.205 237.436L344.463 224.816C344.463 224.816 353.077 219.083 368.167 219.314V219.304Z" fill="#D4D4D4"/>
<path d="M432.212 219.304V220.96C432.212 220.96 415.154 218.983 406.63 227.165L406.168 223.24L417.473 218.049L432.212 219.304Z" fill="#1A5D94"/>
<path d="M397.705 211.633C397.705 211.633 377.103 206.182 369.522 219.565L406.63 227.165C406.63 227.165 408.347 216.964 432.212 219.304L397.705 211.633Z" fill="#D4D4D4"/>
<path d="M304.001 142.548C303.128 142.859 297.475 147.588 297.747 158.672C298.148 174.917 302.144 208.571 304.001 211.734C305.859 214.896 355.025 228.671 355.758 229.474C356.491 230.278 359.041 220.89 359.041 220.89L321.18 196.874C321.18 196.874 318.941 163.04 318.047 157.969C317.154 152.899 314.574 138.753 304.001 142.548Z" fill="#1A5D94"/>
<path d="M358.609 222.426L360.728 223.38C360.728 223.38 370.747 222.587 373.288 225.117C375.828 227.647 377.253 239.203 377.253 239.203L355.758 229.474L358.609 222.426Z" fill="#EEC1BB"/>
<path d="M323.931 141.162C323.931 141.162 328.499 144.184 334.945 148.1C336.29 148.913 343.138 151.935 344.634 152.427L347.405 150.048C347.545 149.626 347.625 149.174 347.666 148.713C347.947 145.6 346.933 141.464 344.202 139.948C341.12 138.241 339.503 136.604 339.513 133.592C339.493 131.885 339.814 130.078 340.236 128.291L336.782 126.926L323.72 117.498C326.15 124.205 329.142 136.082 323.931 141.152V141.162Z" fill="#EEC1BB"/>
<path opacity="0.2" d="M339.523 134.255C336.14 132.94 332.244 130.339 332.043 126.645C331.973 125.088 332.054 123.592 332.274 122.609L339.895 129.837C339.604 131.253 339.563 132.167 339.523 134.245V134.255Z" fill="black"/>
<path d="M319.433 105.139C322.395 116.454 323.409 121.293 330.346 126.333C340.778 133.914 353.991 128.582 354.452 116.795C354.874 106.193 349.955 89.4665 337.866 86.5148C325.959 83.6032 316.461 93.8239 319.433 105.139Z" fill="#EEC1BB"/>
<path d="M335.547 106.334C335.808 107.539 336.632 108.432 337.385 108.322C338.148 108.211 338.549 107.147 338.288 105.942C338.027 104.737 337.204 103.844 336.451 103.954C335.688 104.065 335.286 105.129 335.547 106.334Z" fill="#263238"/>
<path d="M347.204 104.326C347.455 105.49 348.278 106.354 349.031 106.243C349.784 106.133 350.196 105.099 349.945 103.924C349.694 102.759 348.87 101.896 348.117 102.006C347.364 102.117 346.953 103.151 347.204 104.326Z" fill="#263238"/>
<path d="M331.833 102.569C331.983 102.569 332.124 102.499 332.224 102.368C333.72 100.43 335.808 100.681 335.839 100.681C336.15 100.721 336.421 100.501 336.441 100.189C336.461 99.8781 336.22 99.597 335.899 99.5468C335.788 99.5367 333.168 99.2255 331.31 101.625C331.13 101.866 331.18 102.227 331.431 102.428C331.551 102.529 331.702 102.569 331.843 102.559L331.833 102.569Z" fill="#263238"/>
<path d="M349.121 98.0808C349.232 98.0206 349.312 97.9202 349.342 97.7897C349.403 97.5085 349.222 97.2073 348.931 97.0969C346.059 96.0527 344.302 97.5085 344.222 97.5688C344.011 97.7495 344.011 98.0808 344.222 98.3218C344.433 98.5627 344.764 98.6129 344.975 98.4322C345.045 98.372 346.431 97.2776 348.71 98.1009C348.86 98.1511 349.001 98.1411 349.121 98.0808Z" fill="#263238"/>
<path d="M343.087 104.436C343.087 104.436 345.597 108.442 348.077 110.781C348.509 111.193 348.409 111.916 347.887 112.207C346.551 112.97 344.814 112.769 344.814 112.769L343.087 104.436Z" fill="#D4827D"/>
<path d="M336.029 104.075L338.559 103.01C338.559 103.01 337.445 105.219 336.029 104.075Z" fill="#263238"/>
<path d="M347.726 102.127L350.256 101.063C350.256 101.063 349.141 103.272 347.726 102.127Z" fill="#263238"/>
<path d="M324.363 120.189C285.839 96.3338 328.901 80.1293 328.901 80.1293C346.2 68.011 346.802 86.4344 346.802 86.4344C355.467 95.4804 343.198 103.392 343.198 103.392C348.368 95.9523 340.366 91.5146 340.366 91.5146C341.591 101.404 331.953 105.279 331.953 105.279C335.728 96.364 333.318 91.7456 333.318 91.7456C330.557 107.639 322.606 110.832 322.606 110.832L324.363 120.189Z" fill="#263238"/>
<path d="M317.515 115.089C319.262 117.217 321.712 118.332 323.82 118.502C326.993 118.763 327.746 113.603 326.2 110.731C324.804 108.141 321.521 106.826 318.66 107.92C315.839 108.994 315.517 112.659 317.515 115.089Z" fill="#EEC1BB"/>
<path opacity="0.2" d="M325.116 113.512C325.005 113.512 324.905 113.432 324.875 113.322C324.644 112.418 324.172 111.575 323.499 110.902C323.067 110.46 322.365 109.918 321.501 109.828C320.718 109.747 319.935 110.109 319.634 110.701C319.574 110.822 319.423 110.872 319.292 110.812C319.172 110.751 319.122 110.601 319.182 110.47C319.584 109.697 320.557 109.215 321.551 109.326C322.565 109.436 323.369 110.049 323.861 110.551C324.594 111.293 325.106 112.207 325.357 113.201C325.387 113.332 325.306 113.472 325.176 113.502C325.156 113.502 325.136 113.502 325.116 113.502V113.512Z" fill="black"/>
<path d="M344.613 116.936C343.75 118.051 342.957 119.235 342.264 120.47C342.033 120.39 341.792 120.3 341.561 120.209C338.399 119.004 337.314 117.398 337.103 115.982C337.013 115.29 337.083 114.577 337.314 113.914C337.435 113.543 337.605 113.181 337.826 112.85C339.122 114.496 341.983 115.842 343.539 116.504C344.222 116.755 344.613 116.936 344.613 116.936Z" fill="#263238"/>
<path d="M343.589 116.484L342.866 117.508C339.895 116.364 337.957 115.179 337.365 113.894C337.485 113.522 337.656 113.161 337.877 112.83C339.182 114.486 342.033 115.822 343.589 116.484Z" fill="white"/>
<path d="M341.601 120.189C338.439 118.984 337.354 117.378 337.144 115.962C338.338 116.444 339.443 117.127 340.397 117.99C341.019 118.582 341.441 119.346 341.601 120.179V120.189Z" fill="#C15854"/>
<path d="M260.267 357.123L273.169 380.717L284.434 377.363L274.203 349.984L260.267 357.123Z" fill="#895555"/>
<path d="M276.05 393.427L284.102 391.711C284.102 391.711 284.564 390.064 286.261 389.652C287.215 389.421 289.745 390.275 289.745 390.275L311.933 385.727C311.933 385.727 311.622 384.201 311.24 383.598C310.779 382.855 310.287 382.253 309.785 381.751C308.028 380.024 305.347 379.673 303.349 379.482C300.006 379.16 290.367 376.61 290.367 376.61C290.367 376.61 287.867 375.717 285.799 372.875C284.644 371.299 283.108 370.496 282.124 370.576C280.116 370.727 279.273 372.112 279.373 373.99L279.494 376.169C278.239 377.644 276.261 377.986 274.444 376.891C274.444 376.891 269.775 375.305 270.448 377.343C270.829 378.508 272.737 383.658 274.123 387.765C274.444 388.719 274.755 389.632 275.016 390.425C275.608 392.192 276.02 393.407 276.02 393.407L276.05 393.427Z" fill="#263238"/>
<path d="M295.538 377.795C295.417 377.725 295.267 377.745 295.166 377.845C294.704 378.287 294.363 378.839 294.182 379.492C294.092 379.833 294.634 380.024 294.725 379.683C294.885 379.11 295.186 378.618 295.588 378.237C295.719 378.106 295.708 377.905 295.548 377.805L295.538 377.795Z" fill="#1A5D94"/>
<path d="M293.64 377.223C293.52 377.152 293.369 377.173 293.269 377.273C292.807 377.715 292.465 378.267 292.285 378.92C292.194 379.261 292.737 379.452 292.827 379.11C292.988 378.538 293.289 378.046 293.69 377.665C293.821 377.534 293.811 377.333 293.65 377.233L293.64 377.223Z" fill="#1A5D94"/>
<path d="M291.692 376.731C291.572 376.661 291.421 376.681 291.321 376.781C290.859 377.223 290.518 377.775 290.337 378.428C290.247 378.769 290.789 378.96 290.879 378.618C291.04 378.046 291.341 377.554 291.743 377.173C291.873 377.042 291.863 376.841 291.703 376.741L291.692 376.731Z" fill="#1A5D94"/>
<path opacity="0.2" d="M286.261 389.652C287.215 389.421 289.745 390.275 289.745 390.275L311.933 385.727C311.933 385.727 311.622 384.201 311.24 383.598C311.03 383.257 310.809 382.956 310.588 382.664L274.886 389.994C274.936 390.134 274.986 390.295 275.036 390.435C275.629 392.202 276.04 393.417 276.04 393.417L284.092 391.7C284.092 391.7 284.554 390.054 286.251 389.642L286.261 389.652Z" fill="white"/>
<path d="M291.492 377.293L291.421 377.062C291.201 376.309 290.97 375.536 290.879 374.743C290.779 373.839 290.879 373.036 291.17 372.353C291.381 371.881 291.682 371.6 292.024 371.55C292.476 371.49 292.867 371.831 293.078 372.173C293.46 372.795 293.56 373.608 293.349 374.422C293.148 375.215 291.984 376.681 291.632 377.102L291.482 377.283L291.492 377.293ZM292.134 371.801C292.134 371.801 292.084 371.801 292.064 371.801C291.713 371.851 291.502 372.233 291.401 372.454C291.12 373.086 291.03 373.849 291.13 374.713C291.211 375.406 291.401 376.098 291.602 376.761C292.265 375.928 292.978 374.914 293.118 374.361C293.309 373.618 293.219 372.865 292.877 372.313C292.717 372.052 292.445 371.801 292.144 371.801H292.134Z" fill="#1A5D94"/>
<path d="M291.241 377.173C290.528 377.173 288.952 377.132 288.279 376.831C287.516 376.49 286.944 375.897 286.703 375.215C286.572 374.833 286.542 374.311 286.873 374C287.124 373.759 287.536 373.699 288.038 373.829C288.751 374.02 289.434 374.442 290.086 375.094C290.648 375.667 291.11 376.329 291.552 376.972L291.682 377.163H291.442C291.381 377.163 291.311 377.163 291.231 377.163L291.241 377.173ZM287.546 374.01C287.365 374.01 287.185 374.05 287.044 374.181C286.793 374.412 286.823 374.823 286.934 375.134C287.154 375.757 287.677 376.289 288.379 376.61C288.901 376.841 290.136 376.932 291.201 376.932C290.799 376.359 290.387 375.777 289.895 375.285C289.283 374.673 288.63 374.261 287.968 374.09C287.857 374.06 287.707 374.03 287.546 374.03V374.01Z" fill="#1A5D94"/>
<path d="M206.935 374.422L201.041 400.666L211.714 405.586L222.105 378.267L206.935 374.422Z" fill="#895555"/>
<path d="M194.806 412.112L201.985 416.148C201.985 416.148 203.421 415.214 204.967 416.027C205.84 416.479 207.176 418.798 207.176 418.798L226.834 430.033C226.834 430.033 227.607 428.688 227.727 427.975C227.868 427.112 227.908 426.339 227.858 425.636C227.677 423.176 225.9 421.138 224.525 419.682C222.226 417.242 216.673 408.949 216.673 408.949C216.673 408.949 215.388 406.62 215.71 403.126C215.89 401.178 215.258 399.572 214.465 398.969C212.848 397.755 211.302 398.237 210.147 399.722L208.802 401.439C206.884 401.72 205.168 400.676 204.535 398.648C204.535 398.648 202.075 394.371 201.232 396.349C200.75 397.474 198.782 402.604 197.105 406.61C196.714 407.544 196.342 408.427 196.021 409.2C195.298 410.917 194.806 412.102 194.806 412.102V412.112Z" fill="#263238"/>
<path d="M219.766 413.236C219.726 413.106 219.595 413.026 219.455 413.026C218.822 413.056 218.19 413.246 217.627 413.608C217.336 413.799 217.617 414.301 217.909 414.11C218.411 413.789 218.963 413.618 219.515 413.588C219.706 413.588 219.826 413.417 219.766 413.236Z" fill="#1A5D94"/>
<path d="M218.712 411.56C218.672 411.429 218.541 411.349 218.4 411.349C217.768 411.379 217.135 411.57 216.573 411.931C216.282 412.122 216.563 412.624 216.854 412.433C217.356 412.112 217.898 411.941 218.461 411.911C218.651 411.911 218.772 411.74 218.712 411.56Z" fill="#1A5D94"/>
<path d="M217.587 409.903C217.547 409.773 217.417 409.692 217.276 409.692C216.644 409.722 216.011 409.913 215.449 410.275C215.158 410.465 215.439 410.967 215.73 410.777C216.232 410.455 216.774 410.285 217.336 410.254C217.527 410.254 217.648 410.084 217.587 409.903Z" fill="#1A5D94"/>
<path opacity="0.2" d="M204.967 416.027C205.84 416.479 207.176 418.798 207.176 418.798L226.834 430.033C226.834 430.033 227.607 428.688 227.727 427.975C227.788 427.573 227.828 427.202 227.848 426.84L196.192 408.768C196.132 408.909 196.071 409.07 196.011 409.2C195.288 410.917 194.796 412.102 194.796 412.102L201.975 416.138C201.975 416.138 203.411 415.204 204.957 416.017L204.967 416.027Z" fill="white"/>
<path d="M217.055 410.184L217.155 409.973C217.487 409.26 217.818 408.528 218.28 407.875C218.802 407.122 219.404 406.59 220.077 406.279C220.539 406.068 220.96 406.048 221.252 406.238C221.633 406.489 221.703 407.012 221.633 407.403C221.513 408.116 221.051 408.799 220.358 409.271C219.675 409.732 217.838 410.064 217.296 410.154L217.065 410.194L217.055 410.184ZM220.76 406.349C220.539 406.349 220.318 406.429 220.177 406.499C219.545 406.791 218.983 407.303 218.481 408.016C218.079 408.588 217.768 409.23 217.477 409.863C218.531 409.672 219.736 409.381 220.207 409.06C220.84 408.628 221.272 408.005 221.382 407.363C221.432 407.042 221.392 406.63 221.111 406.449C221.011 406.379 220.89 406.359 220.77 406.359L220.76 406.349Z" fill="#1A5D94"/>
<path d="M217.286 410.224L217.105 410.074C216.683 409.712 215.288 408.477 214.946 407.724C214.605 406.961 214.555 406.138 214.826 405.465C214.977 405.094 215.298 404.682 215.76 404.672H215.79C216.131 404.672 216.473 404.903 216.744 405.315C217.155 405.927 217.386 406.7 217.446 407.614C217.497 408.417 217.406 409.22 217.306 409.993L217.276 410.224H217.286ZM215.79 404.913H215.77C215.428 404.923 215.177 405.255 215.057 405.556C214.816 406.168 214.856 406.921 215.167 407.614C215.398 408.136 216.282 409.01 217.075 409.722C217.155 409.03 217.226 408.317 217.185 407.624C217.135 406.761 216.914 406.028 216.533 405.445C216.402 405.245 216.131 404.913 215.79 404.913Z" fill="#1A5D94"/>
<path d="M217.236 202.979C217.236 202.979 220.961 236.131 221.955 237.908C225.318 243.922 247.617 254.233 247.617 254.233L258.982 251.853L267.125 258.65L261.753 262.857L255.448 260.478C252.014 261.09 248.521 261.401 245.027 261.391C239.153 261.391 210.84 254.213 206.122 246.321C201.393 238.43 199.224 201.874 199.224 201.874L217.236 202.979Z" fill="#895555"/>
<path d="M198.753 216.011C198.753 216.011 190.018 186.895 200.901 178.812C211.784 170.73 220.439 210.76 220.439 210.76L198.753 216.011Z" fill="#1A5D94"/>
<path d="M205.64 269.263L205.559 230.679L204.726 177.848L183.02 174.746L164.526 174.575L139.506 182.356L138.984 195.318C138.984 195.318 141.564 254.845 141.424 256.642C141.243 258.841 140.691 275.176 140.691 275.176C169.215 281.672 206.092 271.241 205.64 269.273V269.263Z" fill="#1A5D94"/>
<path opacity="0.2" d="M205.238 214.444L204.074 189.555L209.636 213.38L205.238 214.444Z" fill="black"/>
<path opacity="0.2" d="M156.976 218.069C157.679 217.928 161.233 216.764 161.233 216.764L153.331 194.776L164.185 219.093L157.659 221.693L156.976 218.059V218.069Z" fill="black"/>
<path d="M153.914 199.836C153.914 199.836 159.446 236.643 162.639 240.076C168.04 245.89 194.777 261.311 194.777 261.311L208.12 256.632C209.053 256.321 210.088 256.492 210.851 257.074L219.977 264.042L219.104 264.775C218.732 265.096 218.18 265.156 217.738 264.935L216.322 264.233L217.909 265.789L217.407 266.211C216.905 266.632 216.212 266.783 215.569 266.612L211.493 265.518L215.258 268.028C214.415 268.741 213.25 268.982 212.176 268.68L206.202 266.984C202.126 267.917 197.979 268.51 193.803 268.761C186.775 269.192 153.583 257.596 147.388 249.102C141.203 240.609 134.818 205.348 134.818 205.348L153.894 199.846L153.914 199.836Z" fill="#895555"/>
<path d="M136.253 224.314C136.253 224.314 127.98 190.961 138.864 182.879C149.747 174.796 160.53 216.994 160.53 216.994L136.253 224.314Z" fill="#1A5D94"/>
<path d="M225.338 266.713H183.029C183.04 268.339 184.847 269.644 187.056 269.634H255.98C258.179 269.614 259.946 268.309 259.936 266.713H225.338Z" fill="#263238"/>
<path d="M256.613 269.473H217.959C217.296 269.473 216.754 269.032 216.764 268.5C216.764 268.399 216.784 268.299 216.824 268.208L234.023 228.781C234.454 227.657 235.75 226.884 237.215 226.884H275.89C276.542 226.884 277.074 227.305 277.074 227.838C277.074 227.948 277.054 228.058 277.004 228.159L259.805 267.586C259.364 268.71 258.079 269.473 256.613 269.483V269.473Z" fill="#263238"/>
<path opacity="0.7" d="M275.889 226.874H237.215C235.75 226.874 234.454 227.647 234.023 228.771L217.477 266.713H183.029C183.04 268.339 184.847 269.644 187.056 269.634H255.98C256.673 269.634 257.315 269.484 257.888 269.253C258.791 268.951 259.504 268.349 259.815 267.566L277.014 228.139C277.064 228.038 277.084 227.928 277.084 227.818C277.084 227.295 276.552 226.864 275.899 226.864L275.889 226.874Z" fill="white"/>
<path d="M252.657 247.867C251.824 249.755 250.127 251.06 248.862 250.789C247.597 250.518 247.265 248.801 248.069 246.904C248.882 245.006 250.589 243.741 251.854 244.002C253.119 244.263 253.49 245.92 252.647 247.867H252.657Z" fill="white"/>
<g opacity="0.3">
<path d="M234.013 228.781L217.467 266.723H219.254L237.205 226.884C235.739 226.884 234.444 227.657 234.013 228.781Z" fill="black"/>
</g>
<path d="M194.325 128.793L195.549 129.506C196.975 129.536 198.32 130.61 198.652 132.006C198.983 133.391 198.28 134.968 197.025 135.65C196.835 135.751 196.614 135.861 196.553 136.062C196.443 136.393 196.794 136.664 197.045 136.895C198.331 138.01 198.17 140.209 197.015 141.454C195.861 142.698 194.023 143.1 192.337 142.96C191.895 138.18 194.736 133.562 194.325 128.793Z" fill="#263238"/>
<path d="M157.97 142.237C156.153 142.327 154.335 141.202 153.602 139.536C153.402 139.074 153.271 138.562 153.351 138.07C153.582 136.725 155.118 136.112 156.434 135.741C154.968 135.379 153.984 133.923 153.703 132.448C153.572 131.775 153.562 131.052 153.783 130.399C154.155 129.295 155.138 128.492 156.213 128.06C157.287 127.628 158.462 127.508 159.616 127.397L166.273 148.522C164.787 148.853 163.241 149.054 161.745 148.803C160.239 148.552 158.773 147.779 157.94 146.514C157.106 145.239 157.026 143.431 157.97 142.237Z" fill="#263238"/>
<path d="M161.695 175.459C167.839 170.218 167.548 155.68 166.443 147.779L183.963 162.959C183.542 163.853 183.18 164.776 182.889 165.72C182.297 167.407 182.146 169.214 182.457 170.971C182.769 172.427 184.395 176.473 184.395 176.473C184.395 176.473 185.268 181.001 173.361 180.78C168.12 181.252 161.715 175.459 161.715 175.459H161.695Z" fill="#895555"/>
<path opacity="0.2" d="M169.586 155.821C168.542 165.048 177.779 169.515 182.457 170.991C182.146 169.234 182.297 167.427 182.889 165.74L169.586 155.821Z" fill="black"/>
<path d="M163.441 140.881C165.6 151.785 166.594 157.969 173.069 162.829C182.798 170.128 195.8 163.471 197.045 152.116C198.159 141.895 194.435 125.791 182.768 122.95C171.272 120.149 161.283 129.988 163.441 140.891V140.881Z" fill="#895555"/>
<path d="M160.249 127.849C160.992 121.594 176.604 119.526 181.383 122.056C182.096 122.438 173.451 128.14 173.983 127.869L169.827 129.897C169.134 129.837 167.919 130.771 167.508 132.879C167.508 132.879 170.258 149.666 165.991 155.178C161.795 153.813 160.67 147.166 158.893 143.351C156.243 137.668 152.849 129.275 160.259 127.859L160.249 127.849Z" fill="#263238"/>
<path d="M160.198 150.62C161.483 153.331 163.933 155.198 166.323 156.001C169.917 157.196 170.7 153.451 169.917 150.028C169.214 146.945 167.768 143.271 164.064 143.562C160.409 143.843 158.732 147.528 160.198 150.63V150.62Z" fill="#895555"/>
<path d="M178.662 141.433C178.812 142.558 179.545 143.381 180.308 143.281C181.061 143.18 181.553 142.176 181.403 141.052C181.252 139.927 180.519 139.104 179.756 139.204C179.003 139.305 178.511 140.309 178.662 141.433Z" fill="#263238"/>
<path d="M190.047 140.781C190.198 141.905 190.931 142.729 191.694 142.628C192.457 142.528 192.939 141.524 192.788 140.399C192.637 139.275 191.904 138.451 191.141 138.552C190.388 138.652 189.896 139.656 190.047 140.781Z" fill="#263238"/>
<path d="M187.668 140.59C187.668 140.59 192.075 145.71 193.561 147.829C192.135 149.445 189.274 149.154 189.274 149.154L187.668 140.59Z" fill="#6D3939"/>
<path d="M176.523 137.036C176.704 137.086 176.915 137.036 177.055 136.895C178.772 135.198 180.75 135.55 180.77 135.55C181.061 135.61 181.353 135.419 181.413 135.128C181.473 134.837 181.282 134.566 180.991 134.506C180.891 134.486 178.411 134.044 176.272 136.152C176.061 136.363 176.061 136.694 176.272 136.905C176.343 136.975 176.423 137.016 176.513 137.036H176.523Z" fill="#263238"/>
<path opacity="0.2" d="M167.979 150.128C167.869 150.128 167.768 150.048 167.738 149.937C167.507 149.044 167.045 148.23 166.393 147.568C165.971 147.136 165.278 146.604 164.435 146.513C163.672 146.433 162.899 146.795 162.608 147.367C162.548 147.487 162.397 147.538 162.266 147.477C162.146 147.417 162.096 147.266 162.156 147.136C162.548 146.373 163.511 145.911 164.485 146.011C165.489 146.122 166.272 146.724 166.754 147.216C167.467 147.939 167.979 148.843 168.23 149.817C168.26 149.947 168.18 150.088 168.049 150.118C168.029 150.118 168.009 150.118 167.989 150.118L167.979 150.128Z" fill="black"/>
<path d="M195.82 135.349C195.92 135.319 196.011 135.249 196.071 135.168C196.252 134.937 196.212 134.596 195.971 134.425C193.571 132.658 191.212 133.502 191.101 133.522C190.82 133.622 190.67 133.933 190.77 134.205C190.87 134.476 191.182 134.616 191.463 134.526C191.563 134.486 193.39 133.863 195.318 135.279C195.469 135.389 195.659 135.409 195.83 135.349H195.82Z" fill="#263238"/>
<path d="M156.584 122.869C157.156 120.219 160.49 119.275 163.13 119.506C162.648 116.404 166.614 114.145 169.244 113.934C171.995 113.713 173.1 114.667 173.1 114.667C172.889 114.737 173.752 113.03 174.325 112.327C176.433 109.737 180.108 108.623 183.26 109.596C186.413 110.58 188.863 113.602 189.224 116.956C190.73 115.088 193.772 114.807 195.579 116.384C197.387 117.96 197.607 121.082 196.041 122.899C198.059 122.799 199.977 124.667 199.977 126.735C199.977 128.813 198.049 130.66 196.031 130.54C196.172 132.859 196.252 135.761 196.393 138.08L192.256 129.968C190.559 129.586 190.168 128.893 189.636 127.207C188.692 129.516 186.784 129.546 184.345 129.727C181.905 129.907 179.415 128.582 178.15 126.434C177.156 128.843 174.967 130.831 172.417 131.052C169.867 131.273 167.166 129.375 166.875 126.765C165.63 129.154 162.548 130.339 160.068 129.395C157.588 128.452 156.012 125.49 156.584 122.839V122.869Z" fill="#263238"/>
<path d="M188.853 152.889C187.909 154.104 187.065 155.379 186.312 156.714C186.061 156.624 185.8 156.533 185.549 156.433C182.126 155.128 180.961 153.391 180.72 151.865C180.62 151.112 180.7 150.349 180.941 149.626C181.072 149.214 181.262 148.833 181.493 148.471C182.899 150.248 185.991 151.714 187.678 152.427C188.421 152.698 188.832 152.899 188.832 152.899L188.853 152.889Z" fill="#263238"/>
<path d="M187.728 152.397L186.945 153.501C183.732 152.267 181.624 150.971 180.981 149.596C181.112 149.184 181.302 148.803 181.533 148.441C182.949 150.238 186.031 151.684 187.718 152.397H187.728Z" fill="white"/>
<path d="M185.59 156.403C182.166 155.098 181.001 153.361 180.76 151.835C182.055 152.357 183.24 153.1 184.274 154.033C184.947 154.666 185.399 155.499 185.579 156.403H185.59Z" fill="#C15854"/>
<path d="M248.551 306.802C248.129 311.009 247.215 316.762 246.121 320.838C243.139 332.364 239.736 343.448 235.448 354.904C227.165 377.524 220.479 398.518 220.479 398.518L199.445 392.213C199.445 392.213 213.35 326.762 222.728 320.065H165.219C164.144 320.065 163.07 319.995 162.006 319.844C171.915 318.559 187.347 312.455 201.674 306.35C214.324 300.939 226.161 295.537 232.577 293.499C240.428 296.853 249.163 300.206 248.561 306.802H248.551Z" fill="#263238"/>
<path opacity="0.6" d="M232.587 293.56C226.161 295.648 214.324 301.009 201.684 306.411C187.357 312.515 171.925 318.619 162.016 319.905C145.329 317.676 139.054 297.796 156.504 274.865C167.829 274.865 179.214 285.678 179.214 285.678C179.214 285.678 213.461 285.508 232.587 293.56Z" fill="black"/>
<path d="M279.414 363.99L265.508 372.414C265.508 372.414 253.902 348.047 242.808 320.557C243.902 316.471 244.675 312.314 245.097 308.107C245.699 301.511 240.458 296.863 232.607 293.58C226.181 295.668 214.344 301.029 201.704 306.431C187.377 312.535 171.945 318.639 162.036 319.925C160.901 320.075 159.757 320.155 158.602 320.176C139.566 320.176 133 303.489 140.681 275.176C152.006 275.176 171.403 273.951 171.403 273.951C171.403 273.951 208.832 264.956 235.76 268.018C248.872 269.564 259.484 279.393 262.024 292.355C268.962 326.722 279.404 363.99 279.404 363.99H279.414Z" fill="#263238"/>
<path d="M281.612 365.014L265.508 372.414C265.508 372.414 253.902 348.047 242.808 320.557C243.902 316.471 244.675 312.314 245.097 308.107C245.699 301.511 240.458 296.863 232.607 293.58C226.181 295.668 214.344 301.029 201.704 306.431C187.377 312.535 171.945 318.639 162.036 319.925C160.901 320.075 159.757 320.155 158.602 320.176C139.566 320.176 133 303.489 140.681 275.176C152.006 275.176 171.403 273.951 171.403 273.951C171.403 273.951 208.832 264.956 235.76 268.018C248.872 269.564 259.484 279.393 262.024 292.355C268.962 326.722 281.602 365.014 281.602 365.014H281.612Z" fill="#263238"/>
<path opacity="0.2" d="M248.551 306.802C248.129 311.009 247.215 316.762 246.121 320.838C243.139 332.364 239.736 343.448 235.448 354.904C227.165 377.524 220.479 398.518 220.479 398.518L199.445 392.213C199.445 392.213 213.35 326.762 222.728 320.065H165.219C164.144 320.065 163.07 319.995 162.006 319.844C171.915 318.559 187.347 312.455 201.674 306.35C214.324 300.939 226.161 295.537 232.577 293.499C240.428 296.853 249.163 300.206 248.561 306.802H248.551Z" fill="black"/>
<path d="M184.395 237.607C187.217 237.607 189.505 230.311 189.505 221.312C189.505 212.312 187.217 205.017 184.395 205.017C181.573 205.017 179.285 212.312 179.285 221.312C179.285 230.311 181.573 237.607 184.395 237.607Z" fill="white"/>
</svg>
