<svg width="725" height="83" viewBox="0 0 725 83" fill="none" xmlns="http://www.w3.org/2000/svg">
<path d="M0.195312 54.5469L0 39.8984L31.543 38.4336L31.7383 55.1328L0.195312 54.5469ZM105.518 12.8477L102.783 33.4531C101.839 33.1927 100.895 33.0137 99.9512 32.916C99.0072 32.8184 98.0632 32.7695 97.1191 32.7695C94.7103 32.7695 92.4154 33.0951 90.2344 33.7461C88.0534 34.3646 86.1165 35.3249 84.4238 36.627C82.7637 37.929 81.429 39.5566 80.4199 41.5098C79.4434 43.4629 78.9551 45.7578 78.9551 48.3945C78.9551 50.0872 79.2155 51.5521 79.7363 52.7891C80.2897 54.026 81.0547 55.0514 82.0312 55.8652C83.0078 56.679 84.1634 57.2812 85.498 57.6719C86.8327 58.0625 88.2975 58.2578 89.8926 58.2578C91.097 58.2578 92.3503 58.1276 93.6523 57.8672C94.9544 57.6068 96.2402 57.265 97.5098 56.8418C98.7793 56.4186 100.016 55.9303 101.221 55.377C102.425 54.8236 103.532 54.2539 104.541 53.668L102.588 76.6172C101.318 77.2682 99.9349 77.8542 98.4375 78.375C96.9727 78.8633 95.459 79.3027 93.8965 79.6934C92.334 80.0514 90.7715 80.3281 89.209 80.5234C87.6465 80.7188 86.1491 80.8164 84.7168 80.8164C80.5827 80.8164 76.7253 80.0514 73.1445 78.5215C69.5638 76.9915 66.4551 74.8919 63.8184 72.2227C61.1816 69.5534 59.0983 66.4121 57.5684 62.7988C56.071 59.153 55.3223 55.2305 55.3223 51.0312C55.3223 45.4648 56.1198 40.224 57.7148 35.3086C59.3099 30.3607 61.6536 26.0312 64.7461 22.3203C67.8385 18.6094 71.6634 15.6797 76.2207 13.5312C80.8105 11.3828 86.084 10.3086 92.041 10.3086C94.2871 10.3086 96.582 10.4876 98.9258 10.8457C101.302 11.2038 103.499 11.8711 105.518 12.8477ZM168.164 44.0977C168.164 47.0599 167.822 49.9245 167.139 52.6914C166.455 55.4258 165.462 57.9974 164.16 60.4062C162.891 62.8151 161.328 65.0286 159.473 67.0469C157.65 69.0326 155.583 70.7415 153.271 72.1738C150.993 73.6061 148.503 74.7292 145.801 75.543C143.099 76.3242 140.234 76.7148 137.207 76.7148C134.277 76.7148 131.478 76.3405 128.809 75.5918C126.172 74.8431 123.698 73.8014 121.387 72.4668C119.076 71.0996 116.976 69.472 115.088 67.584C113.232 65.6634 111.637 63.5475 110.303 61.2363C109.001 58.8926 107.975 56.3861 107.227 53.7168C106.51 51.0475 106.152 48.2643 106.152 45.3672C106.152 42.5352 106.494 39.7682 107.178 37.0664C107.861 34.332 108.838 31.7604 110.107 29.3516C111.41 26.9427 112.972 24.7292 114.795 22.7109C116.618 20.6927 118.652 18.9512 120.898 17.4863C123.177 16.0215 125.635 14.8822 128.271 14.0684C130.908 13.2546 133.691 12.8477 136.621 12.8477C141.341 12.8477 145.638 13.5801 149.512 15.0449C153.418 16.5098 156.738 18.6094 159.473 21.3438C162.24 24.0456 164.372 27.3333 165.869 31.207C167.399 35.0482 168.164 39.3451 168.164 44.0977ZM146.484 45.3672C146.484 43.9674 146.273 42.6165 145.85 41.3145C145.459 39.9798 144.873 38.8079 144.092 37.7988C143.311 36.7572 142.334 35.9271 141.162 35.3086C140.023 34.6576 138.704 34.332 137.207 34.332C135.677 34.332 134.31 34.6087 133.105 35.1621C131.901 35.7155 130.859 36.4805 129.98 37.457C129.134 38.401 128.483 39.5241 128.027 40.8262C127.572 42.0957 127.344 43.4466 127.344 44.8789C127.344 46.2461 127.539 47.6133 127.93 48.9805C128.32 50.3477 128.906 51.5846 129.688 52.6914C130.469 53.7982 131.429 54.6934 132.568 55.377C133.74 56.0605 135.091 56.4023 136.621 56.4023C138.151 56.4023 139.518 56.1094 140.723 55.5234C141.96 54.9049 143.001 54.0911 143.848 53.082C144.694 52.0404 145.345 50.8522 145.801 49.5176C146.257 48.1829 146.484 46.7995 146.484 45.3672ZM231.592 56.793C231.592 60.4714 231.543 64.1172 231.445 67.7305C231.38 71.3112 231.266 74.9245 231.104 78.5703L202.979 78.082C203.955 72.3203 204.801 66.5749 205.518 60.8457C206.234 55.084 206.592 49.2734 206.592 43.4141C206.592 42.9909 206.576 42.3073 206.543 41.3633C206.51 40.4193 206.445 39.3613 206.348 38.1895C206.25 36.985 206.104 35.7643 205.908 34.5273C205.745 33.2578 205.501 32.1022 205.176 31.0605C204.883 30.0189 204.508 29.1725 204.053 28.5215C203.63 27.8379 203.109 27.4961 202.49 27.4961C201.383 27.4961 200.439 27.8216 199.658 28.4727C198.91 29.1237 198.275 29.9701 197.754 31.0117C197.266 32.0208 196.875 33.1602 196.582 34.4297C196.289 35.6992 196.061 36.9688 195.898 38.2383C195.768 39.5078 195.671 40.7122 195.605 41.8516C195.573 42.9583 195.557 43.8698 195.557 44.5859C195.394 50.3477 195.264 56.0768 195.166 61.7734C195.068 67.4375 194.938 73.1667 194.775 78.9609L169.873 80.0352C170.524 68.5443 171.143 57.1185 171.729 45.7578C172.347 34.3971 172.835 22.9714 173.193 11.4805L196.24 10.3086L196.045 18.1211C196.956 17.0143 197.933 15.9727 198.975 14.9961C200.049 14.0195 201.188 13.1895 202.393 12.5059C203.597 11.7897 204.867 11.2363 206.201 10.8457C207.568 10.4225 209.001 10.2109 210.498 10.2109C213.265 10.2109 215.69 10.6667 217.773 11.5781C219.857 12.4896 221.647 13.7266 223.145 15.2891C224.642 16.8516 225.895 18.707 226.904 20.8555C227.913 22.9714 228.727 25.2337 229.346 27.6426C229.964 30.0514 230.436 32.5742 230.762 35.2109C231.087 37.8151 231.299 40.3867 231.396 42.9258C231.527 45.4648 231.592 47.9225 231.592 50.2988C231.592 52.6751 231.592 54.8398 231.592 56.793ZM286.279 56.5C286.279 60.9596 285.498 64.8171 283.936 68.0723C282.406 71.2949 280.29 73.9642 277.588 76.0801C274.919 78.1634 271.777 79.7096 268.164 80.7188C264.583 81.6953 260.726 82.1836 256.592 82.1836C254.997 82.1836 253.239 81.972 251.318 81.5488C249.43 81.1257 247.51 80.6048 245.557 79.9863C243.604 79.3353 241.715 78.6517 239.893 77.9355C238.102 77.1868 236.507 76.487 235.107 75.8359L237.256 56.6953C240.023 58.3555 243.083 59.625 246.436 60.5039C249.821 61.3503 253.141 61.7734 256.396 61.7734C257.015 61.7734 257.764 61.7572 258.643 61.7246C259.521 61.6595 260.352 61.513 261.133 61.2852C261.947 61.0247 262.63 60.6504 263.184 60.1621C263.737 59.6738 264.014 58.974 264.014 58.0625C264.014 57.444 263.818 56.9232 263.428 56.5C263.037 56.0443 262.533 55.6862 261.914 55.4258C261.296 55.1328 260.596 54.9212 259.814 54.791C259.033 54.6283 258.268 54.5143 257.52 54.4492C256.771 54.3841 256.071 54.3516 255.42 54.3516C254.769 54.3516 254.248 54.3516 253.857 54.3516C251.058 54.3516 248.503 53.9121 246.191 53.0332C243.913 52.1543 241.943 50.9173 240.283 49.3223C238.656 47.6947 237.386 45.7415 236.475 43.4629C235.563 41.1517 235.107 38.5964 235.107 35.7969C235.107 31.9557 235.872 28.5215 237.402 25.4941C238.965 22.4342 241.032 19.8464 243.604 17.7305C246.208 15.582 249.186 13.9382 252.539 12.7988C255.892 11.6595 259.359 11.0898 262.939 11.0898C264.535 11.0898 266.178 11.1549 267.871 11.2852C269.564 11.3828 271.24 11.5781 272.9 11.8711C274.593 12.1641 276.237 12.5384 277.832 12.9941C279.427 13.4499 280.941 14.0195 282.373 14.7031L280.518 34.5273C278.304 33.7786 275.977 33.1602 273.535 32.6719C271.126 32.151 268.766 31.8906 266.455 31.8906C266.032 31.8906 265.479 31.9069 264.795 31.9395C264.144 31.9395 263.444 31.9883 262.695 32.0859C261.979 32.151 261.247 32.265 260.498 32.4277C259.749 32.5905 259.082 32.8184 258.496 33.1113C257.91 33.3717 257.438 33.7298 257.08 34.1855C256.722 34.6413 256.559 35.1784 256.592 35.7969C256.624 36.513 256.885 37.0664 257.373 37.457C257.894 37.8477 258.545 38.1406 259.326 38.3359C260.14 38.4987 261.019 38.5801 261.963 38.5801C262.939 38.5801 263.9 38.5638 264.844 38.5312C265.788 38.4661 266.667 38.4173 267.48 38.3848C268.294 38.3197 268.962 38.3034 269.482 38.3359C272.087 38.4987 274.43 39.0521 276.514 39.9961C278.597 40.9401 280.355 42.1934 281.787 43.7559C283.252 45.3184 284.359 47.1901 285.107 49.3711C285.889 51.5195 286.279 53.8958 286.279 56.5ZM339.99 12.6523L339.502 33.3555L324.951 33.9414L323.193 79.2539L302.588 80.3281L300.732 35.0156L286.182 35.7969L286.768 12.75L339.99 12.6523ZM397.998 77.3008L373.779 80.4258L370.85 69.3906H359.717L357.275 80.4258L332.373 77.9844L351.807 12.9453L378.955 11.5781L397.998 77.3008ZM369.092 54.4492L365.381 37.457L361.768 54.4492H369.092ZM459.619 56.793C459.619 60.4714 459.57 64.1172 459.473 67.7305C459.408 71.3112 459.294 74.9245 459.131 78.5703L431.006 78.082C431.982 72.3203 432.829 66.5749 433.545 60.8457C434.261 55.084 434.619 49.2734 434.619 43.4141C434.619 42.9909 434.603 42.3073 434.57 41.3633C434.538 40.4193 434.473 39.3613 434.375 38.1895C434.277 36.985 434.131 35.7643 433.936 34.5273C433.773 33.2578 433.529 32.1022 433.203 31.0605C432.91 30.0189 432.536 29.1725 432.08 28.5215C431.657 27.8379 431.136 27.4961 430.518 27.4961C429.411 27.4961 428.467 27.8216 427.686 28.4727C426.937 29.1237 426.302 29.9701 425.781 31.0117C425.293 32.0208 424.902 33.1602 424.609 34.4297C424.316 35.6992 424.089 36.9688 423.926 38.2383C423.796 39.5078 423.698 40.7122 423.633 41.8516C423.6 42.9583 423.584 43.8698 423.584 44.5859C423.421 50.3477 423.291 56.0768 423.193 61.7734C423.096 67.4375 422.965 73.1667 422.803 78.9609L397.9 80.0352C398.551 68.5443 399.17 57.1185 399.756 45.7578C400.374 34.3971 400.863 22.9714 401.221 11.4805L424.268 10.3086L424.072 18.1211C424.984 17.0143 425.96 15.9727 427.002 14.9961C428.076 14.0195 429.215 13.1895 430.42 12.5059C431.624 11.7897 432.894 11.2363 434.229 10.8457C435.596 10.4225 437.028 10.2109 438.525 10.2109C441.292 10.2109 443.717 10.6667 445.801 11.5781C447.884 12.4896 449.674 13.7266 451.172 15.2891C452.669 16.8516 453.923 18.707 454.932 20.8555C455.941 22.9714 456.755 25.2337 457.373 27.6426C457.992 30.0514 458.464 32.5742 458.789 35.2109C459.115 37.8151 459.326 40.3867 459.424 42.9258C459.554 45.4648 459.619 47.9225 459.619 50.2988C459.619 52.6751 459.619 54.8398 459.619 56.793ZM515.967 12.6523L515.479 33.3555L500.928 33.9414L499.17 79.2539L478.564 80.3281L476.709 35.0156L462.158 35.7969L462.744 12.75L515.967 12.6523ZM531.76 20.2C528.293 20.2 525.493 19.2667 523.36 17.4C521.293 15.4667 520.26 13.0667 520.26 10.2C520.26 7.26666 521.293 4.83333 523.36 2.9C525.493 0.966662 528.293 -5.72205e-06 531.76 -5.72205e-06C535.16 -5.72205e-06 537.893 0.966662 539.96 2.9C542.093 4.83333 543.16 7.26666 543.16 10.2C543.16 13.0667 542.093 15.4667 539.96 17.4C537.893 19.2667 535.16 20.2 531.76 20.2ZM541.46 25.4V81.5H521.86V25.4H541.46ZM610.107 56.793C610.107 60.4714 610.059 64.1172 609.961 67.7305C609.896 71.3112 609.782 74.9245 609.619 78.5703L581.494 78.082C582.471 72.3203 583.317 66.5749 584.033 60.8457C584.749 55.084 585.107 49.2734 585.107 43.4141C585.107 42.9909 585.091 42.3073 585.059 41.3633C585.026 40.4193 584.961 39.3613 584.863 38.1895C584.766 36.985 584.619 35.7643 584.424 34.5273C584.261 33.2578 584.017 32.1022 583.691 31.0605C583.398 30.0189 583.024 29.1725 582.568 28.5215C582.145 27.8379 581.624 27.4961 581.006 27.4961C579.899 27.4961 578.955 27.8216 578.174 28.4727C577.425 29.1237 576.79 29.9701 576.27 31.0117C575.781 32.0208 575.391 33.1602 575.098 34.4297C574.805 35.6992 574.577 36.9688 574.414 38.2383C574.284 39.5078 574.186 40.7122 574.121 41.8516C574.089 42.9583 574.072 43.8698 574.072 44.5859C573.91 50.3477 573.779 56.0768 573.682 61.7734C573.584 67.4375 573.454 73.1667 573.291 78.9609L548.389 80.0352C549.04 68.5443 549.658 57.1185 550.244 45.7578C550.863 34.3971 551.351 22.9714 551.709 11.4805L574.756 10.3086L574.561 18.1211C575.472 17.0143 576.449 15.9727 577.49 14.9961C578.564 14.0195 579.704 13.1895 580.908 12.5059C582.113 11.7897 583.382 11.2363 584.717 10.8457C586.084 10.4225 587.516 10.2109 589.014 10.2109C591.781 10.2109 594.206 10.6667 596.289 11.5781C598.372 12.4896 600.163 13.7266 601.66 15.2891C603.158 16.8516 604.411 18.707 605.42 20.8555C606.429 22.9714 607.243 25.2337 607.861 27.6426C608.48 30.0514 608.952 32.5742 609.277 35.2109C609.603 37.8151 609.814 40.3867 609.912 42.9258C610.042 45.4648 610.107 47.9225 610.107 50.2988C610.107 52.6751 610.107 54.8398 610.107 56.793ZM669.238 42.0469C669.238 44.8789 669.043 47.7109 668.652 50.543C663.086 50.901 657.552 51.487 652.051 52.3008C646.549 53.082 641.048 53.8633 635.547 54.6445C636.393 56.9883 637.712 58.86 639.502 60.2598C641.325 61.6595 643.49 62.3594 645.996 62.3594C647.298 62.3594 648.714 62.1152 650.244 61.627C651.807 61.1387 653.353 60.5365 654.883 59.8203C656.413 59.0716 657.878 58.2741 659.277 57.4277C660.677 56.5814 661.882 55.8164 662.891 55.1328L660.547 77.3008C659.277 78.2773 657.894 79.1074 656.396 79.791C654.932 80.4746 653.402 81.028 651.807 81.4512C650.212 81.8743 648.6 82.1836 646.973 82.3789C645.345 82.5742 643.75 82.6719 642.188 82.6719C638.965 82.6719 636.019 82.2324 633.35 81.3535C630.68 80.4746 628.255 79.2539 626.074 77.6914C623.926 76.0964 622.038 74.2246 620.41 72.0762C618.783 69.9277 617.432 67.584 616.357 65.0449C615.283 62.5059 614.469 59.8203 613.916 56.9883C613.363 54.1562 613.086 51.2917 613.086 48.3945C613.086 45.3672 613.363 42.3398 613.916 39.3125C614.469 36.2852 615.299 33.3717 616.406 30.5723C617.546 27.7728 618.962 25.1849 620.654 22.8086C622.38 20.3997 624.382 18.3001 626.66 16.5098C628.939 14.7194 631.51 13.3197 634.375 12.3105C637.272 11.3014 640.462 10.7969 643.945 10.7969C646.842 10.7969 649.479 11.2038 651.855 12.0176C654.264 12.7988 656.396 13.9056 658.252 15.3379C660.14 16.7376 661.768 18.4141 663.135 20.3672C664.535 22.3203 665.674 24.4688 666.553 26.8125C667.464 29.1237 668.132 31.5814 668.555 34.1855C669.01 36.7572 669.238 39.3776 669.238 42.0469ZM649.707 39.5078C649.707 38.5964 649.609 37.6686 649.414 36.7246C649.219 35.748 648.893 34.8691 648.438 34.0879C648.014 33.3066 647.445 32.6719 646.729 32.1836C646.012 31.6628 645.117 31.4023 644.043 31.4023C642.741 31.4023 641.585 31.7604 640.576 32.4766C639.6 33.1602 638.753 34.0391 638.037 35.1133C637.321 36.1549 636.735 37.2943 636.279 38.5312C635.824 39.7682 635.482 40.9076 635.254 41.9492L649.707 40.582V39.5078ZM692.871 54.5469L692.676 39.8984L724.219 38.4336L724.414 55.1328L692.871 54.5469Z" fill="white" fill-opacity="0.85"/>
</svg>
